<?xml version="1.0" encoding="utf-8"?>
<!-- Generator: Adobe Illustrator 21.1.0, SVG Export Plug-In . SVG Version: 6.00 Build 0)  -->
<svg version="1.1" xmlns="http://www.w3.org/2000/svg" xmlns:xlink="http://www.w3.org/1999/xlink" x="0px" y="0px"
	 viewBox="0 0 1920 1080" style="enable-background:new 0 0 1920 1080;" xml:space="preserve">
<style type="text/css">
	.st0{display:none;}
	.st1{display:inline;}
	.st2{opacity:0.75;fill:url(#rect5048_1_);enable-background:new    ;}
	.st3{filter:url(#filter7885);}
	.st4{clip-path:url(#SVGID_2_);fill:#62B04F;}
	.st5{opacity:0.3;clip-path:url(#SVGID_4_);fill:#52C5AE;enable-background:new    ;}
	.st6{opacity:0.3;clip-path:url(#SVGID_6_);fill:#F4D96B;enable-background:new    ;}
	.st7{opacity:0.5;clip-path:url(#SVGID_8_);fill:#F4D96B;enable-background:new    ;}
	.st8{clip-path:url(#SVGID_10_);fill:#F4D96B;}
	.st9{opacity:0.3;clip-path:url(#SVGID_12_);fill:#266F3A;enable-background:new    ;}
	.st10{opacity:0.5;clip-path:url(#SVGID_14_);fill:#2C6F26;enable-background:new    ;}
	.st11{clip-path:url(#SVGID_16_);fill:#3C6F26;}
	.st12{opacity:0.3;clip-path:url(#SVGID_18_);fill:#9B4923;enable-background:new    ;}
	.st13{opacity:0.5;clip-path:url(#SVGID_20_);fill:#9B4923;enable-background:new    ;}
	.st14{opacity:0.75;clip-path:url(#SVGID_22_);fill:#9B4923;enable-background:new    ;}
	.st15{opacity:0.3;clip-path:url(#SVGID_24_);fill:#266F3A;enable-background:new    ;}
	.st16{opacity:0.5;clip-path:url(#SVGID_26_);fill:#2C6F26;enable-background:new    ;}
	.st17{clip-path:url(#SVGID_28_);fill:#3C6F26;}
	.st18{opacity:0.3;clip-path:url(#SVGID_30_);fill:#266F3A;enable-background:new    ;}
	.st19{opacity:0.5;clip-path:url(#SVGID_32_);fill:#2C6F26;enable-background:new    ;}
	.st20{clip-path:url(#SVGID_34_);fill:#3C6F26;}
	.st21{opacity:0.3;clip-path:url(#SVGID_36_);fill:#52C5AE;enable-background:new    ;}
	.st22{opacity:0.4;}
	.st23{opacity:0.3;fill:#11FAD3;enable-background:new    ;}
	.st24{opacity:0.297;fill:#FF9222;enable-background:new    ;}
	.st25{opacity:0.287;fill:#FF9222;enable-background:new    ;}
	.st26{opacity:0.5;fill:#FF9222;enable-background:new    ;}
	.st27{opacity:0.202;fill:#FF9222;enable-background:new    ;}
	.st28{opacity:0.297;fill:#24FF2C;enable-background:new    ;}
	.st29{opacity:0.3;fill:#FFE424;enable-background:new    ;}
	.st30{opacity:0.202;fill:#FFE424;enable-background:new    ;}
	.st31{opacity:0.202;fill:#11FAD3;enable-background:new    ;}
	.st32{opacity:0.297;fill:#11FAD3;enable-background:new    ;}
	.st33{opacity:0.287;fill:#11FAD3;enable-background:new    ;}
	.st34{opacity:0.4;fill:#24FF2C;enable-background:new    ;}
	.st35{opacity:0.202;fill:#24FF2C;enable-background:new    ;}
	.st36{opacity:0.297;fill:#FFE424;enable-background:new    ;}
	.st37{opacity:0.181;fill:#11FAD3;enable-background:new    ;}
	.st38{opacity:0.181;fill:#FFE424;enable-background:new    ;}
	.st39{opacity:0.181;fill:#FF9222;enable-background:new    ;}
	.st40{opacity:0.181;fill:#24FF2C;enable-background:new    ;}
	.st41{fill:#D7FFFF;}
	.st42{opacity:0.206;fill:#B587E9;enable-background:new    ;}
	.st43{opacity:0.206;fill:#E2AEF9;enable-background:new    ;}
	.st44{opacity:0.206;fill:#AEF9F0;enable-background:new    ;}
	.st45{opacity:0.155;fill:#7DA3FF;enable-background:new    ;}
	.st46{opacity:0.287;fill:#B587E9;enable-background:new    ;}
	.st47{opacity:0.155;fill:#AEF9F0;enable-background:new    ;}
	.st48{opacity:0.206;fill:#FF95F2;enable-background:new    ;}
	.st49{opacity:0.206;fill:#7DA3FF;enable-background:new    ;}
	.st50{opacity:0.155;fill:#E2AEF9;enable-background:new    ;}
	.st51{opacity:0.206;fill:#43FFEA;enable-background:new    ;}
	.st52{opacity:0.287;fill:#E2AEF9;enable-background:new    ;}
	.st53{opacity:0.206;fill:#5F52FF;enable-background:new    ;}
	.st54{opacity:0.155;fill:#43FFEA;enable-background:new    ;}
	.st55{opacity:0.155;fill:#B587E9;enable-background:new    ;}
	.st56{opacity:0.155;fill:#FF95F2;enable-background:new    ;}
	.st57{opacity:0.287;fill:#5F52FF;enable-background:new    ;}
	.st58{fill:#C3CEF4;}
	.st59{fill:#C9EAF8;}
	.st60{fill:#D0E6FA;}
	.st61{fill:#C7DCF7;}
	.st62{fill:#C9E5F8;}
	.st63{fill:#C8D2F6;}
	.st64{fill:#C4C2F3;}
	.st65{fill:#CADAF7;}
	.st66{fill:#C0BCF6;}
	.st67{fill:#CDDDF9;}
	.st68{fill:#C5C8F8;}
	.st69{fill:#CAC2F5;}
	.st70{fill:#BFD6F9;}
	.st71{fill:#C1F0FC;}
	.st72{fill:#EADDF9;}
	.st73{fill:#C8E2FB;}
	.st74{fill:#DCF0FC;}
	.st75{fill:#DEDCF6;}
</style>
<filter  id="filter7885" inkscape:collect="always" style="color-interpolation-filters:sRGB">
	<feBlend  id="feBlend7887" in2="BackgroundImage" inkscape:collect="always" mode="multiply"></feBlend>
</filter>
<g id="svg8" inkscape:version="0.92.1 r15371" sodipodi:docname="map.svg" xmlns:cc="http://creativecommons.org/ns#" xmlns:dc="http://purl.org/dc/elements/1.1/" xmlns:inkscape="http://www.inkscape.org/namespaces/inkscape" xmlns:rdf="http://www.w3.org/1999/02/22-rdf-syntax-ns#" xmlns:sodipodi="http://sodipodi.sourceforge.net/DTD/sodipodi-0.dtd" xmlns:svg="http://www.w3.org/2000/svg" class="st0">
	
		<sodipodi:namedview  bordercolor="#666666" borderlayer="true" borderopacity="1.0" id="base" inkscape:current-layer="layer7" inkscape:cx="724.84081" inkscape:cy="873.0129" inkscape:document-units="mm" inkscape:pageopacity="0.0" inkscape:pageshadow="2" inkscape:showpageshadow="false" inkscape:snap-global="false" inkscape:window-height="801" inkscape:window-maximized="1" inkscape:window-width="1536" inkscape:window-x="-8" inkscape:window-y="-8" inkscape:zoom="1.4142136" pagecolor="#ffffff" showgrid="false" units="px">
		</sodipodi:namedview>
	
		<g id="layer1" transform="translate(0,-11.25001)" inkscape:groupmode="layer" inkscape:label="Layer 1" sodipodi:insensitive="true" class="st1">
		
			<image style="overflow:visible;enable-background:new    ;" width="1400" height="860" id="image5044" xlink:href="EFBC1596.png"  transform="matrix(1.3333 0 0 1.3333 1990.0482 -11.4033)">
		</image>
	</g>
	<g id="layer2" inkscape:groupmode="layer" inkscape:label="ocean" sodipodi:insensitive="true" class="st1">
		
			<radialGradient id="rect5048_1_" cx="828.9109" cy="772.279" r="263.6574" gradientTransform="matrix(-2.6755 3.9878 3.0071 2.0175 1141.1173 -4692.1523)" gradientUnits="userSpaceOnUse">
			<stop  offset="0" style="stop-color:#1181CA"/>
			<stop  offset="1" style="stop-color:#10428E"/>
		</radialGradient>
		<rect id="rect5048" x="-43" y="-28.4" class="st2" width="1993" height="1174.4"/>
	</g>
	<g id="layer3" inkscape:groupmode="layer" inkscape:label="land sketch" sodipodi:insensitive="true" class="st3">
		
			<image style="display:inline;overflow:visible;enable-background:new    ;" width="1920" height="1080" id="image5231_1_" xlink:href="EFBC159A.jpg"  transform="matrix(1.0041 0 0 1.0041 2.6693 0.3857)">
		</image>
	</g>
	<g id="layer6" inkscape:groupmode="layer" inkscape:label="equestria" sodipodi:insensitive="true" class="st1">
		
			<path id="path7902" inkscape:connector-curvature="0" sodipodi:nodetypes="ccccccccccccccccccccccccccccccccccccccccccccccccccccccccccccccccccccccccccccccccccccccccccccccccccccccccccccccccccccccccccccccccccccccccccccccccccccccccccccccccccccccccccccccccccccccccccccccccccccccccccccccc" d="
			M1634.3,169.8l-96.6-63.3l-26.9,28.4l7.9-69.5l-31.6-42.7l-86.9-4.7l-31.6,14.2l-115.4-4.7l7.9,58.5l-17.4,4.7l-9.5,20.5
			l-34.8,15.8l30,55.3l4.7,17.4l-15.8,31.6l22.1,52.2l7.9,7.9l37.9,15.8l-11.1,41.1l-19,12.6l-3.2,30l9.5,22.1l20.5,58.5l4.7,17.4
			l-8.3,10.9l14.8,14.4l25.1-10.2l19.1-0.3l17.9,4.8l31.5-7.6l34-2.2l22.3,23.3l-5.9,36.7l-27.3-11.8l-54.6,19.4l-17.3-14l-31.2-4.2
			l-10.5,2.4l-14.2,15.8l-9.5,11.1l-17.4,17.4l-28.4,33.2l-15.8,11.1l-23.7-1.6l-4.7,14.2l-11.1,33.2l-11.1-3.2h-41.1l-88.5,3.2
			l-22.1-28.4l-12.6,3.2l-33.2,4.7v-44.2l3.2-9.5l-41.1-34.8l36.3-11.1l12.6-28.4l9.5-20.5l26.9-47.4l15.8,3.2l15.8-19l12.6-33.2
			l-19-36.3l37.9-17.4l1.7-0.4l12.1-3.8l6.7,8.9l13.4,17.9l10.1,2.2l36.9-39.1l7.3-16.2l-25.1-9.5l-25.7-7.8l-7.8-17.9l9.5-6.1
			l28.5-10.1l-14.5-14.5l-3.4-20.1l3.4-14.5l-29.1-9.5h-11.7l-3.4-21.8l3.9-11.2l-7.8-12.9l-10.6-19l9.5-18.4l19.6-10.1l-0.6-15.6
			l-5.6-7.8l-10.1,0.6l-20.1,8.9l-15.6-11.2l-1.7-16.2L747.5,97l-17.4,20.5l-20.5,9.5l-25.3,28.4l-3.2,4.7l20.5,39.5l7.9,12.6
			l-44.2-7.9l-3.2,12.6l-19,3.2l-34.8,1.6l-3.2,22.1l-6.3,14.2l-20.5,14.2l-22.1-3.2l-19,20.5l-9.5-4.7l-36.3-17.4l-28.4,19
			l-20.5,6.3l-7.9,22.1l-19,23.7l28.4,44.2l19-25.3l20.5,11.1l28.4-6.3l22.1,1.6l36.3-17.4l31.6-3.2l25.3,1.6l19-7.9l4.7,15.8
			l-23.7,4.7l-6.3,22.1l9.5,1.6l9.5,6.3l-1.6,7.9l-4.7,15.8l-15.8-1.6l-12.6-1.6l-9.5,3.2l-20.5-1.6l-1.6,25.3l26.9,7.9l7.9,3.2
			l25.3,17.4l11.1,1.6l9.5,9.5l12.6,9.5l11.1,3.2l14.2,22.1h30l9.5,19l7.9,7.9l4.7,15.8l3.2,15.8v15.8l-19,19l-19,12.6l-14.2,11.1
			h-15.8l-25.3,11.1l-44.1-4.5v16.8l-6.7,11.7l-5.3,9.1l8.7,55.4l11.1,26.9l-3.2,33.2l82.2-1.6l9.5,26.9l7.9,6.3l90.1-9.5l23.7,14.2
			l110.6-1.6H983l30-3.2l36.3,26.9l75.9-1.6l36.3,7.9l44.2,1.6l45.8-33.2l42.7,4.7l30-12.6l6.3-20.5l1.6-31.6l64.8-9.5l22.1-7.9
			l28.4-6.3l49-11.1l39.5,9.5l20.5-30l1.6-23.7l-17.4-23.7l-11.1-25.3l11.1-11.1l17.4-15.8l-3.2-47.4l55.3-14.2l3.2-7.9l17.4-19
			l52.2,4.7l17.4-20.5l-30-23.7l-25.3-19l-14.2-22.1l-3.2-56.9l-6.3-22.1l-28.4-31.6V312l7.9-12.6l7.9-39.5l-14.2-30l39.5-60.1"/>
	</g>
	<g id="layer7" inkscape:groupmode="layer" inkscape:label="equestria colors" class="st1">
		<g>
			<defs>
				<polyline id="SVGID_1_" points="1227.9,628 1212.1,639.1 1188.4,637.5 1183.7,651.7 1172.6,684.9 1161.5,681.8 1120.5,681.8 
					1032,684.9 1009.8,656.5 997.2,659.6 964,664.4 964,620.1 967.2,610.6 926.1,575.9 962.4,564.8 975.1,536.4 984.5,515.8 
					1011.4,468.4 1027.2,471.6 1043,452.6 1055.7,419.4 1036.7,383.1 1074.6,365.7 1076.3,365.3 1088.4,361.5 1095.1,370.4 
					1108.5,388.3 1118.6,390.5 1155.5,351.4 1162.7,335.2 1137.6,325.7 1111.9,317.9 1104.1,300 1113.5,293.9 1142,283.8 
					1127.5,269.3 1124.2,249.2 1127.5,234.6 1098.5,225.1 1086.7,225.1 1083.4,203.4 1087.3,192.2 1079.5,179.3 1068.9,160.3 
					1078.3,141.9 1097.9,131.8 1097.3,116.2 1091.8,108.4 1081.7,108.9 1061.6,117.9 1045.9,106.7 1044.3,90.5 747.5,97 
					730.1,117.6 709.6,127.1 684.3,155.5 681.1,160.2 701.7,199.8 709.6,212.4 665.3,204.5 662.2,217.1 643.2,220.3 608.4,221.9 
					605.3,244 598.9,258.2 578.4,272.5 556.3,269.3 537.3,289.8 527.8,285.1 491.5,267.7 463,286.7 442.5,293 434.6,315.1 
					415.6,338.8 444.1,383.1 463,357.8 483.6,368.9 512,362.5 534.2,364.1 570.5,346.7 602.1,343.6 627.4,345.1 646.4,337.2 
					651.1,353 627.4,357.8 621.1,379.9 630.6,381.5 640,387.8 638.5,395.7 633.7,411.5 617.9,409.9 605.3,408.4 595.8,411.5 
					575.2,409.9 573.7,435.2 600.5,443.1 608.4,446.3 633.7,463.7 644.8,465.3 654.3,474.7 666.9,484.2 678,487.4 692.2,509.5 
					722.2,509.5 731.7,528.5 739.6,536.4 744.3,552.2 747.5,568 747.5,583.8 728.5,602.7 709.6,615.4 695.3,626.4 679.5,626.4 
					654.3,637.5 610.1,633 610.1,649.8 603.4,661.5 598.2,670.6 606.8,726 617.9,752.9 614.7,786.1 696.9,784.5 706.4,811.3 
					714.3,817.7 804.4,808.2 828.1,822.4 938.7,820.8 983,820.8 1013,817.7 1049.3,844.5 1125.2,843 1161.5,850.9 1205.8,852.4 
					1251.6,819.2 1294.3,824 1324.3,811.3 1330.6,790.8 1332.2,759.2 1397,749.7 1419.1,741.8 1447.6,735.5 1496.6,724.4 
					1536.1,733.9 1556.6,703.9 1558.2,680.2 1540.8,656.5 1529.8,631.2 				"/>
			</defs>
			<clipPath id="SVGID_2_">
				<use xlink:href="#SVGID_1_"  style="overflow:visible;"/>
			</clipPath>
			<rect id="rect7909" x="330.4" y="-10.4" class="st4" width="1409.7" height="611.9"/>
		</g>
		<g>
			<defs>
				<polyline id="SVGID_3_" points="1634.3,169.8 1537.7,106.5 1510.8,135 1518.7,65.4 1487.1,22.8 1400.2,18 1368.6,32.2 
					1253.2,27.5 1261.1,86 1243.7,90.7 1234.2,111.3 1199.5,127.1 1229.5,182.4 1234.2,199.8 1218.4,231.4 1240.6,283.5 
					1248.5,291.4 1286.4,307.2 1275.3,348.3 1256.4,361 1253.2,391 1262.7,413.1 1283.2,471.6 1288,489 1279.7,499.9 1294.4,514.3 
					1319.6,504.1 1338.6,503.8 1356.5,508.6 1388,501 1422,498.8 1444.3,522.1 1438.4,558.7 1411.1,546.9 1356.5,566.3 
					1339.2,552.4 1308,548.2 1297.4,550.6 1283.2,566.4 1273.7,577.5 1256.4,594.8 1227.9,628 1212.1,639.1 1188.4,637.5 
					1183.7,651.7 1172.6,684.9 1161.5,681.8 1120.5,681.8 1032,684.9 1009.8,656.5 997.2,659.6 964,664.4 964,620.1 967.2,610.6 
					926.1,575.9 962.4,564.8 975.1,536.4 984.5,515.8 1011.4,468.4 1027.2,471.6 1043,452.6 1055.7,419.4 1036.7,383.1 
					1074.6,365.7 1076.3,365.3 1088.4,361.5 1095.1,370.4 1108.5,388.3 1118.6,390.5 1155.5,351.4 1162.7,335.2 1137.6,325.7 
					1111.9,317.9 1104.1,300 1113.5,293.9 1142,283.8 1127.5,269.3 1124.2,249.2 1127.5,234.6 1098.5,225.1 1086.7,225.1 
					1083.4,203.4 1087.3,192.2 1079.5,179.3 1068.9,160.3 1078.3,141.9 1097.9,131.8 1097.3,116.2 1091.8,108.4 1081.7,108.9 
					1061.6,117.9 1045.9,106.7 1044.3,90.5 747.5,97 730.1,117.6 709.6,127.1 684.3,155.5 681.1,160.2 701.7,199.8 709.6,212.4 
					665.3,204.5 662.2,217.1 643.2,220.3 608.4,221.9 605.3,244 598.9,258.2 578.4,272.5 556.3,269.3 537.3,289.8 527.8,285.1 
					491.5,267.7 463,286.7 442.5,293 434.6,315.1 415.6,338.8 444.1,383.1 463,357.8 483.6,368.9 512,362.5 534.2,364.1 
					570.5,346.7 602.1,343.6 627.4,345.1 646.4,337.2 651.1,353 627.4,357.8 621.1,379.9 630.6,381.5 640,387.8 638.5,395.7 
					633.7,411.5 617.9,409.9 605.3,408.4 595.8,411.5 575.2,409.9 573.7,435.2 600.5,443.1 608.4,446.3 633.7,463.7 644.8,465.3 
					654.3,474.7 666.9,484.2 678,487.4 692.2,509.5 722.2,509.5 731.7,528.5 739.6,536.4 744.3,552.2 747.5,568 747.5,583.8 
					728.5,602.7 709.6,615.4 695.3,626.4 679.5,626.4 654.3,637.5 610.1,633 610.1,649.8 603.4,661.5 598.2,670.6 606.8,726 
					617.9,752.9 614.7,786.1 696.9,784.5 706.4,811.3 714.3,817.7 804.4,808.2 828.1,822.4 938.7,820.8 983,820.8 1013,817.7 
					1049.3,844.5 1125.2,843 1161.5,850.9 1205.8,852.4 1251.6,819.2 1294.3,824 1324.3,811.3 1330.6,790.8 1332.2,759.2 
					1397,749.7 1419.1,741.8 1447.6,735.5 1496.6,724.4 1536.1,733.9 1556.6,703.9 1558.2,680.2 1540.8,656.5 1529.8,631.2 
					1540.8,620.1 1558.2,604.3 1555,556.9 1610.4,542.7 1613.5,534.8 1630.9,515.8 1683,520.6 1700.4,500 1670.4,476.3 
					1645.1,457.4 1630.9,435.2 1627.7,378.3 1621.4,356.2 1593,324.6 1593,312 1600.9,299.3 1608.8,259.8 1594.6,229.8 
					1634.1,169.7 				"/>
			</defs>
			<clipPath id="SVGID_4_">
				<use xlink:href="#SVGID_3_"  style="overflow:visible;"/>
			</clipPath>
			<path id="path7968" inkscape:connector-curvature="0" sodipodi:nodetypes="ccccccccccccccccccccccccccccccc" class="st5" d="
				M795,79.3l48.9,13l-52.2,41.1l16.9,58.7l-48.5,66.1l50,49.2l47.2-2.6l6.6,54.1l101.2,10.9l83.1-59.2l12.6-64.5l31.2-52.6v-33.2
				l12.6-23.7l31.6-15.8l-23.7-50.6l-35.9-20.8l-1.7-3.3l-11.1,1.6l-9.1-0.8l-18.6,7.5l-7.9-3.2l-0.4-7.1l-4,0.8l-64.8,17.4
				L945,55.9L934,63.8L896,68.6l-36.3-7.9l-17.4-20.5l-53.7,4.7"/>
		</g>
		<g>
			<defs>
				<polyline id="SVGID_5_" points="1634.3,169.8 1537.7,106.5 1510.8,135 1518.7,65.4 1487.1,22.8 1400.2,18 1368.6,32.2 
					1253.2,27.5 1261.1,86 1243.7,90.7 1234.2,111.3 1199.5,127.1 1229.5,182.4 1234.2,199.8 1218.4,231.4 1240.6,283.5 
					1248.5,291.4 1286.4,307.2 1275.3,348.3 1256.4,361 1253.2,391 1262.7,413.1 1283.2,471.6 1288,489 1279.7,499.9 1294.4,514.3 
					1319.6,504.1 1338.6,503.8 1356.5,508.6 1388,501 1422,498.8 1444.3,522.1 1438.4,558.7 1411.1,546.9 1356.5,566.3 
					1339.2,552.4 1308,548.2 1297.4,550.6 1283.2,566.4 1273.7,577.5 1256.4,594.8 1227.9,628 1212.1,639.1 1188.4,637.5 
					1183.7,651.7 1172.6,684.9 1161.5,681.8 1120.5,681.8 1032,684.9 1009.8,656.5 997.2,659.6 964,664.4 964,620.1 967.2,610.6 
					926.1,575.9 962.4,564.8 975.1,536.4 984.5,515.8 1011.4,468.4 1027.2,471.6 1043,452.6 1055.7,419.4 1036.7,383.1 
					1074.6,365.7 1076.3,365.3 1088.4,361.5 1095.1,370.4 1108.5,388.3 1118.6,390.5 1155.5,351.4 1162.7,335.2 1137.6,325.7 
					1111.9,317.9 1104.1,300 1113.5,293.9 1142,283.8 1127.5,269.3 1124.2,249.2 1127.5,234.6 1098.5,225.1 1086.7,225.1 
					1083.4,203.4 1087.3,192.2 1079.5,179.3 1068.9,160.3 1078.3,141.9 1097.9,131.8 1097.3,116.2 1091.8,108.4 1081.7,108.9 
					1061.6,117.9 1045.9,106.7 1044.3,90.5 747.5,97 730.1,117.6 709.6,127.1 684.3,155.5 681.1,160.2 701.7,199.8 709.6,212.4 
					665.3,204.5 662.2,217.1 643.2,220.3 608.4,221.9 605.3,244 598.9,258.2 578.4,272.5 556.3,269.3 537.3,289.8 527.8,285.1 
					491.5,267.7 463,286.7 442.5,293 434.6,315.1 415.6,338.8 444.1,383.1 463,357.8 483.6,368.9 512,362.5 534.2,364.1 
					570.5,346.7 602.1,343.6 627.4,345.1 646.4,337.2 651.1,353 627.4,357.8 621.1,379.9 630.6,381.5 640,387.8 638.5,395.7 
					633.7,411.5 617.9,409.9 605.3,408.4 595.8,411.5 575.2,409.9 573.7,435.2 600.5,443.1 608.4,446.3 633.7,463.7 644.8,465.3 
					654.3,474.7 666.9,484.2 678,487.4 692.2,509.5 722.2,509.5 731.7,528.5 739.6,536.4 744.3,552.2 747.5,568 747.5,583.8 
					728.5,602.7 709.6,615.4 695.3,626.4 679.5,626.4 654.3,637.5 610.1,633 610.1,649.8 603.4,661.5 598.2,670.6 606.8,726 
					617.9,752.9 614.7,786.1 696.9,784.5 706.4,811.3 714.3,817.7 804.4,808.2 828.1,822.4 938.7,820.8 983,820.8 1013,817.7 
					1049.3,844.5 1125.2,843 1161.5,850.9 1205.8,852.4 1251.6,819.2 1294.3,824 1324.3,811.3 1330.6,790.8 1332.2,759.2 
					1397,749.7 1419.1,741.8 1447.6,735.5 1496.6,724.4 1536.1,733.9 1556.6,703.9 1558.2,680.2 1540.8,656.5 1529.8,631.2 
					1540.8,620.1 1558.2,604.3 1555,556.9 1610.4,542.7 1613.5,534.8 1630.9,515.8 1683,520.6 1700.4,500 1670.4,476.3 
					1645.1,457.4 1630.9,435.2 1627.7,378.3 1621.4,356.2 1593,324.6 1593,312 1600.9,299.3 1608.8,259.8 1594.6,229.8 
					1634.1,169.7 				"/>
			</defs>
			<clipPath id="SVGID_6_">
				<use xlink:href="#SVGID_5_"  style="overflow:visible;"/>
			</clipPath>
			<path id="path7913" inkscape:connector-curvature="0" sodipodi:nodetypes="ccccccccccccccccccccccccccccccccc" class="st6" d="
				M656,381.2l-16.5-11.6l-36.5,1.9l-18.2,27.1l-29.1,20.5l-71.4,7.9l-13.6,35.9l56.9,37.1l17,34.9l67,14.1l61.7,2.1l40.9-22.7
				l39.4,3.5l50.5,15.7l92.5-24.3l-23.1-56.3l-14.8-8.9l31.7-15.1l-2.8-23.3l-7.5-10.1l-15.7-16.1l-12.6-18.1l25.8-22.7l-19.2-34.8
				l-28.4-20.1l-38.8,12.7l-39.6,9.8l-24.1,15.1l-17.3,15.2l-22.5-2.5l-19.2,9.2l3.2,15.2L656,381.2z"/>
		</g>
		<g>
			<defs>
				<polyline id="SVGID_7_" points="1634.3,169.8 1537.7,106.5 1510.8,135 1518.7,65.4 1487.1,22.8 1400.2,18 1368.6,32.2 
					1253.2,27.5 1261.1,86 1243.7,90.7 1234.2,111.3 1199.5,127.1 1229.5,182.4 1234.2,199.8 1218.4,231.4 1240.6,283.5 
					1248.5,291.4 1286.4,307.2 1275.3,348.3 1256.4,361 1253.2,391 1262.7,413.1 1283.2,471.6 1288,489 1279.7,499.9 1294.4,514.3 
					1319.6,504.1 1338.6,503.8 1356.5,508.6 1388,501 1422,498.8 1444.3,522.1 1438.4,558.7 1411.1,546.9 1356.5,566.3 
					1339.2,552.4 1308,548.2 1297.4,550.6 1283.2,566.4 1273.7,577.5 1256.4,594.8 1227.9,628 1212.1,639.1 1188.4,637.5 
					1183.7,651.7 1172.6,684.9 1161.5,681.8 1120.5,681.8 1032,684.9 1009.8,656.5 997.2,659.6 964,664.4 964,620.1 967.2,610.6 
					926.1,575.9 962.4,564.8 975.1,536.4 984.5,515.8 1011.4,468.4 1027.2,471.6 1043,452.6 1055.7,419.4 1036.7,383.1 
					1074.6,365.7 1076.3,365.3 1088.4,361.5 1095.1,370.4 1108.5,388.3 1118.6,390.5 1155.5,351.4 1162.7,335.2 1137.6,325.7 
					1111.9,317.9 1104.1,300 1113.5,293.9 1142,283.8 1127.5,269.3 1124.2,249.2 1127.5,234.6 1098.5,225.1 1086.7,225.1 
					1083.4,203.4 1087.3,192.2 1079.5,179.3 1068.9,160.3 1078.3,141.9 1097.9,131.8 1097.3,116.2 1091.8,108.4 1081.7,108.9 
					1061.6,117.9 1045.9,106.7 1044.3,90.5 747.5,97 730.1,117.6 709.6,127.1 684.3,155.5 681.1,160.2 701.7,199.8 709.6,212.4 
					665.3,204.5 662.2,217.1 643.2,220.3 608.4,221.9 605.3,244 598.9,258.2 578.4,272.5 556.3,269.3 537.3,289.8 527.8,285.1 
					491.5,267.7 463,286.7 442.5,293 434.6,315.1 415.6,338.8 444.1,383.1 463,357.8 483.6,368.9 512,362.5 534.2,364.1 
					570.5,346.7 602.1,343.6 627.4,345.1 646.4,337.2 651.1,353 627.4,357.8 621.1,379.9 630.6,381.5 640,387.8 638.5,395.7 
					633.7,411.5 617.9,409.9 605.3,408.4 595.8,411.5 575.2,409.9 573.7,435.2 600.5,443.1 608.4,446.3 633.7,463.7 644.8,465.3 
					654.3,474.7 666.9,484.2 678,487.4 692.2,509.5 722.2,509.5 731.7,528.5 739.6,536.4 744.3,552.2 747.5,568 747.5,583.8 
					728.5,602.7 709.6,615.4 695.3,626.4 679.5,626.4 654.3,637.5 610.1,633 610.1,649.8 603.4,661.5 598.2,670.6 606.8,726 
					617.9,752.9 614.7,786.1 696.9,784.5 706.4,811.3 714.3,817.7 804.4,808.2 828.1,822.4 938.7,820.8 983,820.8 1013,817.7 
					1049.3,844.5 1125.2,843 1161.5,850.9 1205.8,852.4 1251.6,819.2 1294.3,824 1324.3,811.3 1330.6,790.8 1332.2,759.2 
					1397,749.7 1419.1,741.8 1447.6,735.5 1496.6,724.4 1536.1,733.9 1556.6,703.9 1558.2,680.2 1540.8,656.5 1529.8,631.2 
					1540.8,620.1 1558.2,604.3 1555,556.9 1610.4,542.7 1613.5,534.8 1630.9,515.8 1683,520.6 1700.4,500 1670.4,476.3 
					1645.1,457.4 1630.9,435.2 1627.7,378.3 1621.4,356.2 1593,324.6 1593,312 1600.9,299.3 1608.8,259.8 1594.6,229.8 
					1634.1,169.7 				"/>
			</defs>
			<clipPath id="SVGID_8_">
				<use xlink:href="#SVGID_7_"  style="overflow:visible;"/>
			</clipPath>
			<path id="path7915" inkscape:connector-curvature="0" sodipodi:nodetypes="cccccccccccccccccccccccccccccccc" class="st7" d="
				M658.4,401.2l-14.3,2.8l-11-9.1l-29.1,23.1l-44.8,9.1l-48.3,13.2l-27.9,26l74,33.2l58.3,39.3l87.6-29.5l33.5,9.7l58.8,9l66.7-7.8
				l-9.2-39.2l-37.5-24.9l46.5-8.1l1.9-19l-14-8.8l-12.5-18.9l2.7-18.4l-13.7-17.2l23.1-13.7l-19-15.7l-25.5-18l-34.7,11.3
				l-35.5,8.8l2.2,18.1l-29.1,13.6l-20.2,3l-7.9,15.2l-4.8,13.1L658.4,401.2z"/>
		</g>
		<g>
			<defs>
				<polyline id="SVGID_9_" points="1634.3,169.8 1537.7,106.5 1510.8,135 1518.7,65.4 1487.1,22.8 1400.2,18 1368.6,32.2 
					1253.2,27.5 1261.1,86 1243.7,90.7 1234.2,111.3 1199.5,127.1 1229.5,182.4 1234.2,199.8 1218.4,231.4 1240.6,283.5 
					1248.5,291.4 1286.4,307.2 1275.3,348.3 1256.4,361 1253.2,391 1262.7,413.1 1283.2,471.6 1288,489 1279.7,499.9 1294.4,514.3 
					1319.6,504.1 1338.6,503.8 1356.5,508.6 1388,501 1422,498.8 1444.3,522.1 1438.4,558.7 1411.1,546.9 1356.5,566.3 
					1339.2,552.4 1308,548.2 1297.4,550.6 1283.2,566.4 1273.7,577.5 1256.4,594.8 1227.9,628 1212.1,639.1 1188.4,637.5 
					1183.7,651.7 1172.6,684.9 1161.5,681.8 1120.5,681.8 1032,684.9 1009.8,656.5 997.2,659.6 964,664.4 964,620.1 967.2,610.6 
					926.1,575.9 962.4,564.8 975.1,536.4 984.5,515.8 1011.4,468.4 1027.2,471.6 1043,452.6 1055.7,419.4 1036.7,383.1 
					1074.6,365.7 1076.3,365.3 1088.4,361.5 1095.1,370.4 1108.5,388.3 1118.6,390.5 1155.5,351.4 1162.7,335.2 1137.6,325.7 
					1111.9,317.9 1104.1,300 1113.5,293.9 1142,283.8 1127.5,269.3 1124.2,249.2 1127.5,234.6 1098.5,225.1 1086.7,225.1 
					1083.4,203.4 1087.3,192.2 1079.5,179.3 1068.9,160.3 1078.3,141.9 1097.9,131.8 1097.3,116.2 1091.8,108.4 1081.7,108.9 
					1061.6,117.9 1045.9,106.7 1044.3,90.5 747.5,97 730.1,117.6 709.6,127.1 684.3,155.5 681.1,160.2 701.7,199.8 709.6,212.4 
					665.3,204.5 662.2,217.1 643.2,220.3 608.4,221.9 605.3,244 598.9,258.2 578.4,272.5 556.3,269.3 537.3,289.8 527.8,285.1 
					491.5,267.7 463,286.7 442.5,293 434.6,315.1 415.6,338.8 444.1,383.1 463,357.8 483.6,368.9 512,362.5 534.2,364.1 
					570.5,346.7 602.1,343.6 627.4,345.1 646.4,337.2 651.1,353 627.4,357.8 621.1,379.9 630.6,381.5 640,387.8 638.5,395.7 
					633.7,411.5 617.9,409.9 605.3,408.4 595.8,411.5 575.2,409.9 573.7,435.2 600.5,443.1 608.4,446.3 633.7,463.7 644.8,465.3 
					654.3,474.7 666.9,484.2 678,487.4 692.2,509.5 722.2,509.5 731.7,528.5 739.6,536.4 744.3,552.2 747.5,568 747.5,583.8 
					728.5,602.7 709.6,615.4 695.3,626.4 679.5,626.4 654.3,637.5 610.1,633 610.1,649.8 603.4,661.5 598.2,670.6 606.8,726 
					617.9,752.9 614.7,786.1 696.9,784.5 706.4,811.3 714.3,817.7 804.4,808.2 828.1,822.4 938.7,820.8 983,820.8 1013,817.7 
					1049.3,844.5 1125.2,843 1161.5,850.9 1205.8,852.4 1251.6,819.2 1294.3,824 1324.3,811.3 1330.6,790.8 1332.2,759.2 
					1397,749.7 1419.1,741.8 1447.6,735.5 1496.6,724.4 1536.1,733.9 1556.6,703.9 1558.2,680.2 1540.8,656.5 1529.8,631.2 
					1540.8,620.1 1558.2,604.3 1555,556.9 1610.4,542.7 1613.5,534.8 1630.9,515.8 1683,520.6 1700.4,500 1670.4,476.3 
					1645.1,457.4 1630.9,435.2 1627.7,378.3 1621.4,356.2 1593,324.6 1593,312 1600.9,299.3 1608.8,259.8 1594.6,229.8 
					1634.1,169.7 				"/>
			</defs>
			<clipPath id="SVGID_10_">
				<use xlink:href="#SVGID_9_"  style="overflow:visible;"/>
			</clipPath>
			<path id="path7911" inkscape:connector-curvature="0" sodipodi:nodetypes="ccccccccccccccccccccccccccccc" class="st8" d="
				M679.9,411.8l-10,9.5l-19.1-13.9l-22.3,17.9l-34.3,7l-58.3,30.4l56.6,25.7l44.6,30.4l67-22.8l115.3,8.1l-1-31.1l-23.1-7.7l8-14.5
				l20.2-4.6l8.5-16.9l-14.6-13l-15.9-4.7l-6.8-20.3l14.4-12l-7.6-17l-19.5-13.9l-26.6,8.8l-17.4,6.3l1.7,14l-22.3,10.5l-15.4,2.3
				l5.1,12.3l-8.6,8.2L679.9,411.8z"/>
		</g>
		<g>
			<defs>
				<polyline id="SVGID_11_" points="1634.3,169.8 1537.7,106.5 1510.8,135 1518.7,65.4 1487.1,22.8 1400.2,18 1368.6,32.2 
					1253.2,27.5 1261.1,86 1243.7,90.7 1234.2,111.3 1199.5,127.1 1229.5,182.4 1234.2,199.8 1218.4,231.4 1240.6,283.5 
					1248.5,291.4 1286.4,307.2 1275.3,348.3 1256.4,361 1253.2,391 1262.7,413.1 1283.2,471.6 1288,489 1279.7,499.9 1294.4,514.3 
					1319.6,504.1 1338.6,503.8 1356.5,508.6 1388,501 1422,498.8 1444.3,522.1 1438.4,558.7 1411.1,546.9 1356.5,566.3 
					1339.2,552.4 1308,548.2 1297.4,550.6 1283.2,566.4 1273.7,577.5 1256.4,594.8 1227.9,628 1212.1,639.1 1188.4,637.5 
					1183.7,651.7 1172.6,684.9 1161.5,681.8 1120.5,681.8 1032,684.9 1009.8,656.5 997.2,659.6 964,664.4 964,620.1 967.2,610.6 
					926.1,575.9 962.4,564.8 975.1,536.4 984.5,515.8 1011.4,468.4 1027.2,471.6 1043,452.6 1055.7,419.4 1036.7,383.1 
					1074.6,365.7 1076.3,365.3 1088.4,361.5 1095.1,370.4 1108.5,388.3 1118.6,390.5 1155.5,351.4 1162.7,335.2 1137.6,325.7 
					1111.9,317.9 1104.1,300 1113.5,293.9 1142,283.8 1127.5,269.3 1124.2,249.2 1127.5,234.6 1098.5,225.1 1086.7,225.1 
					1083.4,203.4 1087.3,192.2 1079.5,179.3 1068.9,160.3 1078.3,141.9 1097.9,131.8 1097.3,116.2 1091.8,108.4 1081.7,108.9 
					1061.6,117.9 1045.9,106.7 1044.3,90.5 747.5,97 730.1,117.6 709.6,127.1 684.3,155.5 681.1,160.2 701.7,199.8 709.6,212.4 
					665.3,204.5 662.2,217.1 643.2,220.3 608.4,221.9 605.3,244 598.9,258.2 578.4,272.5 556.3,269.3 537.3,289.8 527.8,285.1 
					491.5,267.7 463,286.7 442.5,293 434.6,315.1 415.6,338.8 444.1,383.1 463,357.8 483.6,368.9 512,362.5 534.2,364.1 
					570.5,346.7 602.1,343.6 627.4,345.1 646.4,337.2 651.1,353 627.4,357.8 621.1,379.9 630.6,381.5 640,387.8 638.5,395.7 
					633.7,411.5 617.9,409.9 605.3,408.4 595.8,411.5 575.2,409.9 573.7,435.2 600.5,443.1 608.4,446.3 633.7,463.7 644.8,465.3 
					654.3,474.7 666.9,484.2 678,487.4 692.2,509.5 722.2,509.5 731.7,528.5 739.6,536.4 744.3,552.2 747.5,568 747.5,583.8 
					728.5,602.7 709.6,615.4 695.3,626.4 679.5,626.4 654.3,637.5 610.1,633 610.1,649.8 603.4,661.5 598.2,670.6 606.8,726 
					617.9,752.9 614.7,786.1 696.9,784.5 706.4,811.3 714.3,817.7 804.4,808.2 828.1,822.4 938.7,820.8 983,820.8 1013,817.7 
					1049.3,844.5 1125.2,843 1161.5,850.9 1205.8,852.4 1251.6,819.2 1294.3,824 1324.3,811.3 1330.6,790.8 1332.2,759.2 
					1397,749.7 1419.1,741.8 1447.6,735.5 1496.6,724.4 1536.1,733.9 1556.6,703.9 1558.2,680.2 1540.8,656.5 1529.8,631.2 
					1540.8,620.1 1558.2,604.3 1555,556.9 1610.4,542.7 1613.5,534.8 1630.9,515.8 1683,520.6 1700.4,500 1670.4,476.3 
					1645.1,457.4 1630.9,435.2 1627.7,378.3 1621.4,356.2 1593,324.6 1593,312 1600.9,299.3 1608.8,259.8 1594.6,229.8 
					1634.1,169.7 				"/>
			</defs>
			<clipPath id="SVGID_12_">
				<use xlink:href="#SVGID_11_"  style="overflow:visible;"/>
			</clipPath>
			<path id="path7946" inkscape:connector-curvature="0" sodipodi:nodetypes="ccccccccccccccccccccccccccccccccc" class="st9" d="
				M622.2,557.7l15.7-29.9l17.2-42.7l50.2-21.3l44.6,20.9l36.4-9.7l34.3,0.5l5.6-25.2l7.9-33l33.3-27.1l28.3-44.3l58.4-10.7
				l30.5-24.1l52.6,0.2l54.1-18.5l52.4,69.6l-15.3,72.8l-4.7,68.8l-52.9,73.1l-43.8,34.6l-15.6,49.7l-61.4,43.3l-47.1-19.9
				l-55.2-1.9l-55.8,23.6l-44.2,11.5l-63.1,8.8l-67.3,6.7l-73.3-87.6L578,620l19.8-28.4l39.4-9.4L622.2,557.7z"/>
		</g>
		<g>
			<defs>
				<polyline id="SVGID_13_" points="1634.3,169.8 1537.7,106.5 1510.8,135 1518.7,65.4 1487.1,22.8 1400.2,18 1368.6,32.2 
					1253.2,27.5 1261.1,86 1243.7,90.7 1234.2,111.3 1199.5,127.1 1229.5,182.4 1234.2,199.8 1218.4,231.4 1240.6,283.5 
					1248.5,291.4 1286.4,307.2 1275.3,348.3 1256.4,361 1253.2,391 1262.7,413.1 1283.2,471.6 1288,489 1279.7,499.9 1294.4,514.3 
					1319.6,504.1 1338.6,503.8 1356.5,508.6 1388,501 1422,498.8 1444.3,522.1 1438.4,558.7 1411.1,546.9 1356.5,566.3 
					1339.2,552.4 1308,548.2 1297.4,550.6 1283.2,566.4 1273.7,577.5 1256.4,594.8 1227.9,628 1212.1,639.1 1188.4,637.5 
					1183.7,651.7 1172.6,684.9 1161.5,681.8 1120.5,681.8 1032,684.9 1009.8,656.5 997.2,659.6 964,664.4 964,620.1 967.2,610.6 
					926.1,575.9 962.4,564.8 975.1,536.4 984.5,515.8 1011.4,468.4 1027.2,471.6 1043,452.6 1055.7,419.4 1036.7,383.1 
					1074.6,365.7 1076.3,365.3 1088.4,361.5 1095.1,370.4 1108.5,388.3 1118.6,390.5 1155.5,351.4 1162.7,335.2 1137.6,325.7 
					1111.9,317.9 1104.1,300 1113.5,293.9 1142,283.8 1127.5,269.3 1124.2,249.2 1127.5,234.6 1098.5,225.1 1086.7,225.1 
					1083.4,203.4 1087.3,192.2 1079.5,179.3 1068.9,160.3 1078.3,141.9 1097.9,131.8 1097.3,116.2 1091.8,108.4 1081.7,108.9 
					1061.6,117.9 1045.9,106.7 1044.3,90.5 747.5,97 730.1,117.6 709.6,127.1 684.3,155.5 681.1,160.2 701.7,199.8 709.6,212.4 
					665.3,204.5 662.2,217.1 643.2,220.3 608.4,221.9 605.3,244 598.9,258.2 578.4,272.5 556.3,269.3 537.3,289.8 527.8,285.1 
					491.5,267.7 463,286.7 442.5,293 434.6,315.1 415.6,338.8 444.1,383.1 463,357.8 483.6,368.9 512,362.5 534.2,364.1 
					570.5,346.7 602.1,343.6 627.4,345.1 646.4,337.2 651.1,353 627.4,357.8 621.1,379.9 630.6,381.5 640,387.8 638.5,395.7 
					633.7,411.5 617.9,409.9 605.3,408.4 595.8,411.5 575.2,409.9 573.7,435.2 600.5,443.1 608.4,446.3 633.7,463.7 644.8,465.3 
					654.3,474.7 666.9,484.2 678,487.4 692.2,509.5 722.2,509.5 731.7,528.5 739.6,536.4 744.3,552.2 747.5,568 747.5,583.8 
					728.5,602.7 709.6,615.4 695.3,626.4 679.5,626.4 654.3,637.5 610.1,633 610.1,649.8 603.4,661.5 598.2,670.6 606.8,726 
					617.9,752.9 614.7,786.1 696.9,784.5 706.4,811.3 714.3,817.7 804.4,808.2 828.1,822.4 938.7,820.8 983,820.8 1013,817.7 
					1049.3,844.5 1125.2,843 1161.5,850.9 1205.8,852.4 1251.6,819.2 1294.3,824 1324.3,811.3 1330.6,790.8 1332.2,759.2 
					1397,749.7 1419.1,741.8 1447.6,735.5 1496.6,724.4 1536.1,733.9 1556.6,703.9 1558.2,680.2 1540.8,656.5 1529.8,631.2 
					1540.8,620.1 1558.2,604.3 1555,556.9 1610.4,542.7 1613.5,534.8 1630.9,515.8 1683,520.6 1700.4,500 1670.4,476.3 
					1645.1,457.4 1630.9,435.2 1627.7,378.3 1621.4,356.2 1593,324.6 1593,312 1600.9,299.3 1608.8,259.8 1594.6,229.8 
					1634.1,169.7 				"/>
			</defs>
			<clipPath id="SVGID_14_">
				<use xlink:href="#SVGID_13_"  style="overflow:visible;"/>
			</clipPath>
			<path id="path7944" inkscape:connector-curvature="0" sodipodi:nodetypes="ccccccccccccccccccccccccccccccccc" class="st10" d="
				M703,581.6l-31.3-35.5l14.6-36.9l42.6-18.4l37.8,18.1l30.9-8.4l29.1,0.4l4.7-21.8l6.7-28.5l36.8-30.2l15.5-43.1l45.8-23.8
				l45.8-8.2l26.6-10.5l67.8,0.5l24.5,56.3l-13,62.9l-4,59.4l-44.9,63.2L1002,607l-13.3,43l-52.1,37.4l-40-17.2l-55.4-21.9
				L802.4,689l-37.6,10l-53.6-0.1L654,712.4l-62.2-75.7l39.5-29.3l32.9-20.6l25.9,4.4L703,581.6z"/>
		</g>
		<g>
			<defs>
				<polyline id="SVGID_15_" points="1634.3,169.8 1537.7,106.5 1510.8,135 1518.7,65.4 1487.1,22.8 1400.2,18 1368.6,32.2 
					1253.2,27.5 1261.1,86 1243.7,90.7 1234.2,111.3 1199.5,127.1 1229.5,182.4 1234.2,199.8 1218.4,231.4 1240.6,283.5 
					1248.5,291.4 1286.4,307.2 1275.3,348.3 1256.4,361 1253.2,391 1262.7,413.1 1283.2,471.6 1288,489 1279.7,499.9 1294.4,514.3 
					1319.6,504.1 1338.6,503.8 1356.5,508.6 1388,501 1422,498.8 1444.3,522.1 1438.4,558.7 1411.1,546.9 1356.5,566.3 
					1339.2,552.4 1308,548.2 1297.4,550.6 1283.2,566.4 1273.7,577.5 1256.4,594.8 1227.9,628 1212.1,639.1 1188.4,637.5 
					1183.7,651.7 1172.6,684.9 1161.5,681.8 1120.5,681.8 1032,684.9 1009.8,656.5 997.2,659.6 964,664.4 964,620.1 967.2,610.6 
					926.1,575.9 962.4,564.8 975.1,536.4 984.5,515.8 1011.4,468.4 1027.2,471.6 1043,452.6 1055.7,419.4 1036.7,383.1 
					1074.6,365.7 1076.3,365.3 1088.4,361.5 1095.1,370.4 1108.5,388.3 1118.6,390.5 1155.5,351.4 1162.7,335.2 1137.6,325.7 
					1111.9,317.9 1104.1,300 1113.5,293.9 1142,283.8 1127.5,269.3 1124.2,249.2 1127.5,234.6 1098.5,225.1 1086.7,225.1 
					1083.4,203.4 1087.3,192.2 1079.5,179.3 1068.9,160.3 1078.3,141.9 1097.9,131.8 1097.3,116.2 1091.8,108.4 1081.7,108.9 
					1061.6,117.9 1045.9,106.7 1044.3,90.5 747.5,97 730.1,117.6 709.6,127.1 684.3,155.5 681.1,160.2 701.7,199.8 709.6,212.4 
					665.3,204.5 662.2,217.1 643.2,220.3 608.4,221.9 605.3,244 598.9,258.2 578.4,272.5 556.3,269.3 537.3,289.8 527.8,285.1 
					491.5,267.7 463,286.7 442.5,293 434.6,315.1 415.6,338.8 444.1,383.1 463,357.8 483.6,368.9 512,362.5 534.2,364.1 
					570.5,346.7 602.1,343.6 627.4,345.1 646.4,337.2 651.1,353 627.4,357.8 621.1,379.9 630.6,381.5 640,387.8 638.5,395.7 
					633.7,411.5 617.9,409.9 605.3,408.4 595.8,411.5 575.2,409.9 573.7,435.2 600.5,443.1 608.4,446.3 633.7,463.7 644.8,465.3 
					654.3,474.7 666.9,484.2 678,487.4 692.2,509.5 722.2,509.5 731.7,528.5 739.6,536.4 744.3,552.2 747.5,568 747.5,583.8 
					728.5,602.7 709.6,615.4 695.3,626.4 679.5,626.4 654.3,637.5 610.1,633 610.1,649.8 603.4,661.5 598.2,670.6 606.8,726 
					617.9,752.9 614.7,786.1 696.9,784.5 706.4,811.3 714.3,817.7 804.4,808.2 828.1,822.4 938.7,820.8 983,820.8 1013,817.7 
					1049.3,844.5 1125.2,843 1161.5,850.9 1205.8,852.4 1251.6,819.2 1294.3,824 1324.3,811.3 1330.6,790.8 1332.2,759.2 
					1397,749.7 1419.1,741.8 1447.6,735.5 1496.6,724.4 1536.1,733.9 1556.6,703.9 1558.2,680.2 1540.8,656.5 1529.8,631.2 
					1540.8,620.1 1558.2,604.3 1555,556.9 1610.4,542.7 1613.5,534.8 1630.9,515.8 1683,520.6 1700.4,500 1670.4,476.3 
					1645.1,457.4 1630.9,435.2 1627.7,378.3 1621.4,356.2 1593,324.6 1593,312 1600.9,299.3 1608.8,259.8 1594.6,229.8 
					1634.1,169.7 				"/>
			</defs>
			<clipPath id="SVGID_16_">
				<use xlink:href="#SVGID_15_"  style="overflow:visible;"/>
			</clipPath>
			<path id="path7942" inkscape:connector-curvature="0" sodipodi:nodetypes="ccccccccccccccccccccccccccccccccc" class="st11" d="
				M729,582.4l-27.7-31.4l11.9-27.7l39.7-1.4l12.7,18l47.1-29.2l33.7,17.2l26.9-29.2l-24.7-32.2l49.4-27.7l15.7-38.2l24.7-29.9
				l28.7,17.4l39.4-18.2l44.1-10.5l24.7,75.6l-13.5,32.9l-7.5,51.6l-54.6,35.2l-32.9,34.4l15,53.9l-46.1,33.1l-26.5-30l-49-8.5
				l-59.1,14.3l-17.4,34.5l-44.5-13.9l-53.6,25.8l-55.1-67l35-25.9l44-6.4l18-3L729,582.4z"/>
		</g>
		<g>
			<defs>
				<polyline id="SVGID_17_" points="1634.3,169.8 1537.7,106.5 1510.8,135 1518.7,65.4 1487.1,22.8 1400.2,18 1368.6,32.2 
					1253.2,27.5 1261.1,86 1243.7,90.7 1234.2,111.3 1199.5,127.1 1229.5,182.4 1234.2,199.8 1218.4,231.4 1240.6,283.5 
					1248.5,291.4 1286.4,307.2 1275.3,348.3 1256.4,361 1253.2,391 1262.7,413.1 1283.2,471.6 1288,489 1279.7,499.9 1294.4,514.3 
					1319.6,504.1 1338.6,503.8 1356.5,508.6 1388,501 1422,498.8 1444.3,522.1 1438.4,558.7 1411.1,546.9 1356.5,566.3 
					1339.2,552.4 1308,548.2 1297.4,550.6 1283.2,566.4 1273.7,577.5 1256.4,594.8 1227.9,628 1212.1,639.1 1188.4,637.5 
					1183.7,651.7 1172.6,684.9 1161.5,681.8 1120.5,681.8 1032,684.9 1009.8,656.5 997.2,659.6 964,664.4 964,620.1 967.2,610.6 
					926.1,575.9 962.4,564.8 975.1,536.4 984.5,515.8 1011.4,468.4 1027.2,471.6 1043,452.6 1055.7,419.4 1036.7,383.1 
					1074.6,365.7 1076.3,365.3 1088.4,361.5 1095.1,370.4 1108.5,388.3 1118.6,390.5 1155.5,351.4 1162.7,335.2 1137.6,325.7 
					1111.9,317.9 1104.1,300 1113.5,293.9 1142,283.8 1127.5,269.3 1124.2,249.2 1127.5,234.6 1098.5,225.1 1086.7,225.1 
					1083.4,203.4 1087.3,192.2 1079.5,179.3 1068.9,160.3 1078.3,141.9 1097.9,131.8 1097.3,116.2 1091.8,108.4 1081.7,108.9 
					1061.6,117.9 1045.9,106.7 1044.3,90.5 747.5,97 730.1,117.6 709.6,127.1 684.3,155.5 681.1,160.2 701.7,199.8 709.6,212.4 
					665.3,204.5 662.2,217.1 643.2,220.3 608.4,221.9 605.3,244 598.9,258.2 578.4,272.5 556.3,269.3 537.3,289.8 527.8,285.1 
					491.5,267.7 463,286.7 442.5,293 434.6,315.1 415.6,338.8 444.1,383.1 463,357.8 483.6,368.9 512,362.5 534.2,364.1 
					570.5,346.7 602.1,343.6 627.4,345.1 646.4,337.2 651.1,353 627.4,357.8 621.1,379.9 630.6,381.5 640,387.8 638.5,395.7 
					633.7,411.5 617.9,409.9 605.3,408.4 595.8,411.5 575.2,409.9 573.7,435.2 600.5,443.1 608.4,446.3 633.7,463.7 644.8,465.3 
					654.3,474.7 666.9,484.2 678,487.4 692.2,509.5 722.2,509.5 731.7,528.5 739.6,536.4 744.3,552.2 747.5,568 747.5,583.8 
					728.5,602.7 709.6,615.4 695.3,626.4 679.5,626.4 654.3,637.5 610.1,633 610.1,649.8 603.4,661.5 598.2,670.6 606.8,726 
					617.9,752.9 614.7,786.1 696.9,784.5 706.4,811.3 714.3,817.7 804.4,808.2 828.1,822.4 938.7,820.8 983,820.8 1013,817.7 
					1049.3,844.5 1125.2,843 1161.5,850.9 1205.8,852.4 1251.6,819.2 1294.3,824 1324.3,811.3 1330.6,790.8 1332.2,759.2 
					1397,749.7 1419.1,741.8 1447.6,735.5 1496.6,724.4 1536.1,733.9 1556.6,703.9 1558.2,680.2 1540.8,656.5 1529.8,631.2 
					1540.8,620.1 1558.2,604.3 1555,556.9 1610.4,542.7 1613.5,534.8 1630.9,515.8 1683,520.6 1700.4,500 1670.4,476.3 
					1645.1,457.4 1630.9,435.2 1627.7,378.3 1621.4,356.2 1593,324.6 1593,312 1600.9,299.3 1608.8,259.8 1594.6,229.8 
					1634.1,169.7 				"/>
			</defs>
			<clipPath id="SVGID_18_">
				<use xlink:href="#SVGID_17_"  style="overflow:visible;"/>
			</clipPath>
			<path id="path7948" inkscape:connector-curvature="0" sodipodi:nodetypes="cccccccccccccccccccc" class="st12" d="M833.2,433.3
				L789.5,455l2.6,40.8l23.4,20.2l27.8,32l61.5,10.6l32.2-16.4l43.7,4.9L1022,530l20.1-48.9l11.7-36.8l-19-41l3.8-21.6l-19.2-7.2
				l-31.7-5.3l-41.2,5.3L921,398.7l-31,18.8l-16.8,8.5L833.2,433.3z"/>
		</g>
		<g>
			<defs>
				<polyline id="SVGID_19_" points="1634.3,169.8 1537.7,106.5 1510.8,135 1518.7,65.4 1487.1,22.8 1400.2,18 1368.6,32.2 
					1253.2,27.5 1261.1,86 1243.7,90.7 1234.2,111.3 1199.5,127.1 1229.5,182.4 1234.2,199.8 1218.4,231.4 1240.6,283.5 
					1248.5,291.4 1286.4,307.2 1275.3,348.3 1256.4,361 1253.2,391 1262.7,413.1 1283.2,471.6 1288,489 1279.7,499.9 1294.4,514.3 
					1319.6,504.1 1338.6,503.8 1356.5,508.6 1388,501 1422,498.8 1444.3,522.1 1438.4,558.7 1411.1,546.9 1356.5,566.3 
					1339.2,552.4 1308,548.2 1297.4,550.6 1283.2,566.4 1273.7,577.5 1256.4,594.8 1227.9,628 1212.1,639.1 1188.4,637.5 
					1183.7,651.7 1172.6,684.9 1161.5,681.8 1120.5,681.8 1032,684.9 1009.8,656.5 997.2,659.6 964,664.4 964,620.1 967.2,610.6 
					926.1,575.9 962.4,564.8 975.1,536.4 984.5,515.8 1011.4,468.4 1027.2,471.6 1043,452.6 1055.7,419.4 1036.7,383.1 
					1074.6,365.7 1076.3,365.3 1088.4,361.5 1095.1,370.4 1108.5,388.3 1118.6,390.5 1155.5,351.4 1162.7,335.2 1137.6,325.7 
					1111.9,317.9 1104.1,300 1113.5,293.9 1142,283.8 1127.5,269.3 1124.2,249.2 1127.5,234.6 1098.5,225.1 1086.7,225.1 
					1083.4,203.4 1087.3,192.2 1079.5,179.3 1068.9,160.3 1078.3,141.9 1097.9,131.8 1097.3,116.2 1091.8,108.4 1081.7,108.9 
					1061.6,117.9 1045.9,106.7 1044.3,90.5 747.5,97 730.1,117.6 709.6,127.1 684.3,155.5 681.1,160.2 701.7,199.8 709.6,212.4 
					665.3,204.5 662.2,217.1 643.2,220.3 608.4,221.9 605.3,244 598.9,258.2 578.4,272.5 556.3,269.3 537.3,289.8 527.8,285.1 
					491.5,267.7 463,286.7 442.5,293 434.6,315.1 415.6,338.8 444.1,383.1 463,357.8 483.6,368.9 512,362.5 534.2,364.1 
					570.5,346.7 602.1,343.6 627.4,345.1 646.4,337.2 651.1,353 627.4,357.8 621.1,379.9 630.6,381.5 640,387.8 638.5,395.7 
					633.7,411.5 617.9,409.9 605.3,408.4 595.8,411.5 575.2,409.9 573.7,435.2 600.5,443.1 608.4,446.3 633.7,463.7 644.8,465.3 
					654.3,474.7 666.9,484.2 678,487.4 692.2,509.5 722.2,509.5 731.7,528.5 739.6,536.4 744.3,552.2 747.5,568 747.5,583.8 
					728.5,602.7 709.6,615.4 695.3,626.4 679.5,626.4 654.3,637.5 610.1,633 610.1,649.8 603.4,661.5 598.2,670.6 606.8,726 
					617.9,752.9 614.7,786.1 696.9,784.5 706.4,811.3 714.3,817.7 804.4,808.2 828.1,822.4 938.7,820.8 983,820.8 1013,817.7 
					1049.3,844.5 1125.2,843 1161.5,850.9 1205.8,852.4 1251.6,819.2 1294.3,824 1324.3,811.3 1330.6,790.8 1332.2,759.2 
					1397,749.7 1419.1,741.8 1447.6,735.5 1496.6,724.4 1536.1,733.9 1556.6,703.9 1558.2,680.2 1540.8,656.5 1529.8,631.2 
					1540.8,620.1 1558.2,604.3 1555,556.9 1610.4,542.7 1613.5,534.8 1630.9,515.8 1683,520.6 1700.4,500 1670.4,476.3 
					1645.1,457.4 1630.9,435.2 1627.7,378.3 1621.4,356.2 1593,324.6 1593,312 1600.9,299.3 1608.8,259.8 1594.6,229.8 
					1634.1,169.7 				"/>
			</defs>
			<clipPath id="SVGID_20_">
				<use xlink:href="#SVGID_19_"  style="overflow:visible;"/>
			</clipPath>
			<path id="path7950" inkscape:connector-curvature="0" sodipodi:nodetypes="cccccccccccccccccccc" class="st13" d="M870.7,443.3
				l-30.4,15.9l-21.9,1.5l2,29.8l23.2,14.4l16.3,23.8l39.5,14.4l30.1-19.7l31.1,3.1l37.5-4.1l15.1-42.7L1010,434l4.2-24l-18.5-13.2
				l-28.2-3.9l-25.8,11.3l-19.2,14.4L907.1,431l-19.7,11.9L870.7,443.3z"/>
		</g>
		<g>
			<defs>
				<polyline id="SVGID_21_" points="1634.3,169.8 1537.7,106.5 1510.8,135 1518.7,65.4 1487.1,22.8 1400.2,18 1368.6,32.2 
					1253.2,27.5 1261.1,86 1243.7,90.7 1234.2,111.3 1199.5,127.1 1229.5,182.4 1234.2,199.8 1218.4,231.4 1240.6,283.5 
					1248.5,291.4 1286.4,307.2 1275.3,348.3 1256.4,361 1253.2,391 1262.7,413.1 1283.2,471.6 1288,489 1279.7,499.9 1294.4,514.3 
					1319.6,504.1 1338.6,503.8 1356.5,508.6 1388,501 1422,498.8 1444.3,522.1 1438.4,558.7 1411.1,546.9 1356.5,566.3 
					1339.2,552.4 1308,548.2 1297.4,550.6 1283.2,566.4 1273.7,577.5 1256.4,594.8 1227.9,628 1212.1,639.1 1188.4,637.5 
					1183.7,651.7 1172.6,684.9 1161.5,681.8 1120.5,681.8 1032,684.9 1009.8,656.5 997.2,659.6 964,664.4 964,620.1 967.2,610.6 
					926.1,575.9 962.4,564.8 975.1,536.4 984.5,515.8 1011.4,468.4 1027.2,471.6 1043,452.6 1055.7,419.4 1036.7,383.1 
					1074.6,365.7 1076.3,365.3 1088.4,361.5 1095.1,370.4 1108.5,388.3 1118.6,390.5 1155.5,351.4 1162.7,335.2 1137.6,325.7 
					1111.9,317.9 1104.1,300 1113.5,293.9 1142,283.8 1127.5,269.3 1124.2,249.2 1127.5,234.6 1098.5,225.1 1086.7,225.1 
					1083.4,203.4 1087.3,192.2 1079.5,179.3 1068.9,160.3 1078.3,141.9 1097.9,131.8 1097.3,116.2 1091.8,108.4 1081.7,108.9 
					1061.6,117.9 1045.9,106.7 1044.3,90.5 747.5,97 730.1,117.6 709.6,127.1 684.3,155.5 681.1,160.2 701.7,199.8 709.6,212.4 
					665.3,204.5 662.2,217.1 643.2,220.3 608.4,221.9 605.3,244 598.9,258.2 578.4,272.5 556.3,269.3 537.3,289.8 527.8,285.1 
					491.5,267.7 463,286.7 442.5,293 434.6,315.1 415.6,338.8 444.1,383.1 463,357.8 483.6,368.9 512,362.5 534.2,364.1 
					570.5,346.7 602.1,343.6 627.4,345.1 646.4,337.2 651.1,353 627.4,357.8 621.1,379.9 630.6,381.5 640,387.8 638.5,395.7 
					633.7,411.5 617.9,409.9 605.3,408.4 595.8,411.5 575.2,409.9 573.7,435.2 600.5,443.1 608.4,446.3 633.7,463.7 644.8,465.3 
					654.3,474.7 666.9,484.2 678,487.4 692.2,509.5 722.2,509.5 731.7,528.5 739.6,536.4 744.3,552.2 747.5,568 747.5,583.8 
					728.5,602.7 709.6,615.4 695.3,626.4 679.5,626.4 654.3,637.5 610.1,633 610.1,649.8 603.4,661.5 598.2,670.6 606.8,726 
					617.9,752.9 614.7,786.1 696.9,784.5 706.4,811.3 714.3,817.7 804.4,808.2 828.1,822.4 938.7,820.8 983,820.8 1013,817.7 
					1049.3,844.5 1125.2,843 1161.5,850.9 1205.8,852.4 1251.6,819.2 1294.3,824 1324.3,811.3 1330.6,790.8 1332.2,759.2 
					1397,749.7 1419.1,741.8 1447.6,735.5 1496.6,724.4 1536.1,733.9 1556.6,703.9 1558.2,680.2 1540.8,656.5 1529.8,631.2 
					1540.8,620.1 1558.2,604.3 1555,556.9 1610.4,542.7 1613.5,534.8 1630.9,515.8 1683,520.6 1700.4,500 1670.4,476.3 
					1645.1,457.4 1630.9,435.2 1627.7,378.3 1621.4,356.2 1593,324.6 1593,312 1600.9,299.3 1608.8,259.8 1594.6,229.8 
					1634.1,169.7 				"/>
			</defs>
			<clipPath id="SVGID_22_">
				<use xlink:href="#SVGID_21_"  style="overflow:visible;"/>
			</clipPath>
			<path id="path7952" inkscape:connector-curvature="0" sodipodi:nodetypes="ccccccccccccccccccc" class="st14" d="M865.1,464.7
				l-16.5,9.4l4,14.5l14.4,16.5l4.5,17l36.5,4.3l18.3-15.8l25.2,3.8l24.8-8.4l14.2-25.2l-9.9-30.2l7.7-22l-11.5-10.5l-20.5,4.7
				l-18.2,6l-12,16.5l-27.7,6l-10.1,14.1L865.1,464.7z"/>
		</g>
		<g>
			<defs>
				<polyline id="SVGID_23_" points="1634.3,169.8 1537.7,106.5 1510.8,135 1518.7,65.4 1487.1,22.8 1400.2,18 1368.6,32.2 
					1253.2,27.5 1261.1,86 1243.7,90.7 1234.2,111.3 1199.5,127.1 1229.5,182.4 1234.2,199.8 1218.4,231.4 1240.6,283.5 
					1248.5,291.4 1286.4,307.2 1275.3,348.3 1256.4,361 1253.2,391 1262.7,413.1 1283.2,471.6 1288,489 1279.7,499.9 1294.4,514.3 
					1319.6,504.1 1338.6,503.8 1356.5,508.6 1388,501 1422,498.8 1444.3,522.1 1438.4,558.7 1411.1,546.9 1356.5,566.3 
					1339.2,552.4 1308,548.2 1297.4,550.6 1283.2,566.4 1273.7,577.5 1256.4,594.8 1227.9,628 1212.1,639.1 1188.4,637.5 
					1183.7,651.7 1172.6,684.9 1161.5,681.8 1120.5,681.8 1032,684.9 1009.8,656.5 997.2,659.6 964,664.4 964,620.1 967.2,610.6 
					926.1,575.9 962.4,564.8 975.1,536.4 984.5,515.8 1011.4,468.4 1027.2,471.6 1043,452.6 1055.7,419.4 1036.7,383.1 
					1074.6,365.7 1076.3,365.3 1088.4,361.5 1095.1,370.4 1108.5,388.3 1118.6,390.5 1155.5,351.4 1162.7,335.2 1137.6,325.7 
					1111.9,317.9 1104.1,300 1113.5,293.9 1142,283.8 1127.5,269.3 1124.2,249.2 1127.5,234.6 1098.5,225.1 1086.7,225.1 
					1083.4,203.4 1087.3,192.2 1079.5,179.3 1068.9,160.3 1078.3,141.9 1097.9,131.8 1097.3,116.2 1091.8,108.4 1081.7,108.9 
					1061.6,117.9 1045.9,106.7 1044.3,90.5 747.5,97 730.1,117.6 709.6,127.1 684.3,155.5 681.1,160.2 701.7,199.8 709.6,212.4 
					665.3,204.5 662.2,217.1 643.2,220.3 608.4,221.9 605.3,244 598.9,258.2 578.4,272.5 556.3,269.3 537.3,289.8 527.8,285.1 
					491.5,267.7 463,286.7 442.5,293 434.6,315.1 415.6,338.8 444.1,383.1 463,357.8 483.6,368.9 512,362.5 534.2,364.1 
					570.5,346.7 602.1,343.6 627.4,345.1 646.4,337.2 651.1,353 627.4,357.8 621.1,379.9 630.6,381.5 640,387.8 638.5,395.7 
					633.7,411.5 617.9,409.9 605.3,408.4 595.8,411.5 575.2,409.9 573.7,435.2 600.5,443.1 608.4,446.3 633.7,463.7 644.8,465.3 
					654.3,474.7 666.9,484.2 678,487.4 692.2,509.5 722.2,509.5 731.7,528.5 739.6,536.4 744.3,552.2 747.5,568 747.5,583.8 
					728.5,602.7 709.6,615.4 695.3,626.4 679.5,626.4 654.3,637.5 610.1,633 610.1,649.8 603.4,661.5 598.2,670.6 606.8,726 
					617.9,752.9 614.7,786.1 696.9,784.5 706.4,811.3 714.3,817.7 804.4,808.2 828.1,822.4 938.7,820.8 983,820.8 1013,817.7 
					1049.3,844.5 1125.2,843 1161.5,850.9 1205.8,852.4 1251.6,819.2 1294.3,824 1324.3,811.3 1330.6,790.8 1332.2,759.2 
					1397,749.7 1419.1,741.8 1447.6,735.5 1496.6,724.4 1536.1,733.9 1556.6,703.9 1558.2,680.2 1540.8,656.5 1529.8,631.2 
					1540.8,620.1 1558.2,604.3 1555,556.9 1610.4,542.7 1613.5,534.8 1630.9,515.8 1683,520.6 1700.4,500 1670.4,476.3 
					1645.1,457.4 1630.9,435.2 1627.7,378.3 1621.4,356.2 1593,324.6 1593,312 1600.9,299.3 1608.8,259.8 1594.6,229.8 
					1634.1,169.7 				"/>
			</defs>
			<clipPath id="SVGID_24_">
				<use xlink:href="#SVGID_23_"  style="overflow:visible;"/>
			</clipPath>
			<path id="path7954" inkscape:connector-curvature="0" sodipodi:nodetypes="ccccccccccccccccccccccccccccccccc" class="st15" d="
				M645.7,278.9l-4.9,13l-4.6,17.9l-21.6,14.6l-22.3-1.6l-16.1,8.5l-15.9,4.4l6.7,12.2l-8.4,10.9l-0.7,31l-9.7,20l-26.2,11.8
				l-12.3,12.9l-24.4,7.1l-36.3-2.5l-29.8-18.4l1.4-28.7l-3.2-25.8l-7.3-37.8l16-24l17.6-20.4l29-23l32.9,9.3l25.8-6.8l24-16.2
				l19.6-10.2l28.6-11.8l30.7-11.6l40.9,22.1l-13.8,14.2l-6.9,13l-17.6,8.8L645.7,278.9z"/>
		</g>
		<g>
			<defs>
				<polyline id="SVGID_25_" points="1634.3,169.8 1537.7,106.5 1510.8,135 1518.7,65.4 1487.1,22.8 1400.2,18 1368.6,32.2 
					1253.2,27.5 1261.1,86 1243.7,90.7 1234.2,111.3 1199.5,127.1 1229.5,182.4 1234.2,199.8 1218.4,231.4 1240.6,283.5 
					1248.5,291.4 1286.4,307.2 1275.3,348.3 1256.4,361 1253.2,391 1262.7,413.1 1283.2,471.6 1288,489 1279.7,499.9 1294.4,514.3 
					1319.6,504.1 1338.6,503.8 1356.5,508.6 1388,501 1422,498.8 1444.3,522.1 1438.4,558.7 1411.1,546.9 1356.5,566.3 
					1339.2,552.4 1308,548.2 1297.4,550.6 1283.2,566.4 1273.7,577.5 1256.4,594.8 1227.9,628 1212.1,639.1 1188.4,637.5 
					1183.7,651.7 1172.6,684.9 1161.5,681.8 1120.5,681.8 1032,684.9 1009.8,656.5 997.2,659.6 964,664.4 964,620.1 967.2,610.6 
					926.1,575.9 962.4,564.8 975.1,536.4 984.5,515.8 1011.4,468.4 1027.2,471.6 1043,452.6 1055.7,419.4 1036.7,383.1 
					1074.6,365.7 1076.3,365.3 1088.4,361.5 1095.1,370.4 1108.5,388.3 1118.6,390.5 1155.5,351.4 1162.7,335.2 1137.6,325.7 
					1111.9,317.9 1104.1,300 1113.5,293.9 1142,283.8 1127.5,269.3 1124.2,249.2 1127.5,234.6 1098.5,225.1 1086.7,225.1 
					1083.4,203.4 1087.3,192.2 1079.5,179.3 1068.9,160.3 1078.3,141.9 1097.9,131.8 1097.3,116.2 1091.8,108.4 1081.7,108.9 
					1061.6,117.9 1045.9,106.7 1044.3,90.5 747.5,97 730.1,117.6 709.6,127.1 684.3,155.5 681.1,160.2 701.7,199.8 709.6,212.4 
					665.3,204.5 662.2,217.1 643.2,220.3 608.4,221.9 605.3,244 598.9,258.2 578.4,272.5 556.3,269.3 537.3,289.8 527.8,285.1 
					491.5,267.7 463,286.7 442.5,293 434.6,315.1 415.6,338.8 444.1,383.1 463,357.8 483.6,368.9 512,362.5 534.2,364.1 
					570.5,346.7 602.1,343.6 627.4,345.1 646.4,337.2 651.1,353 627.4,357.8 621.1,379.9 630.6,381.5 640,387.8 638.5,395.7 
					633.7,411.5 617.9,409.9 605.3,408.4 595.8,411.5 575.2,409.9 573.7,435.2 600.5,443.1 608.4,446.3 633.7,463.7 644.8,465.3 
					654.3,474.7 666.9,484.2 678,487.4 692.2,509.5 722.2,509.5 731.7,528.5 739.6,536.4 744.3,552.2 747.5,568 747.5,583.8 
					728.5,602.7 709.6,615.4 695.3,626.4 679.5,626.4 654.3,637.5 610.1,633 610.1,649.8 603.4,661.5 598.2,670.6 606.8,726 
					617.9,752.9 614.7,786.1 696.9,784.5 706.4,811.3 714.3,817.7 804.4,808.2 828.1,822.4 938.7,820.8 983,820.8 1013,817.7 
					1049.3,844.5 1125.2,843 1161.5,850.9 1205.8,852.4 1251.6,819.2 1294.3,824 1324.3,811.3 1330.6,790.8 1332.2,759.2 
					1397,749.7 1419.1,741.8 1447.6,735.5 1496.6,724.4 1536.1,733.9 1556.6,703.9 1558.2,680.2 1540.8,656.5 1529.8,631.2 
					1540.8,620.1 1558.2,604.3 1555,556.9 1610.4,542.7 1613.5,534.8 1630.9,515.8 1683,520.6 1700.4,500 1670.4,476.3 
					1645.1,457.4 1630.9,435.2 1627.7,378.3 1621.4,356.2 1593,324.6 1593,312 1600.9,299.3 1608.8,259.8 1594.6,229.8 
					1634.1,169.7 				"/>
			</defs>
			<clipPath id="SVGID_26_">
				<use xlink:href="#SVGID_25_"  style="overflow:visible;"/>
			</clipPath>
			<path id="path7956" inkscape:connector-curvature="0" sodipodi:nodetypes="ccccccccccccccccccccccccccccccccc" class="st16" d="
				M606.3,281.1l17.3,8.7l-3.9,15.5l-18.3,12.5l-19-1.5l-13.7,7.2l-13.5,3.8l-7.2,7.5l5.8,12.5l-14.7,16l8.8,34.5l-19.4,14.9
				l-20.6,9.2l-11.5,7.4l-44.1-7.6l-15.8-17.3l1.1-24.7l-14.7-23.1l13.9-24l16.1-21.9l-3.4-11.4l30.5-33.6l29.4,9.2l27.4,0.5
				l14.8-20.1l16.6-8.7l24.9-7.2l25.5-12.7l34.8,19.3l-16,16.1l-13.7,12l-12.4,1.9L606.3,281.1z"/>
		</g>
		<g>
			<defs>
				<polyline id="SVGID_27_" points="1634.3,169.8 1537.7,106.5 1510.8,135 1518.7,65.4 1487.1,22.8 1400.2,18 1368.6,32.2 
					1253.2,27.5 1261.1,86 1243.7,90.7 1234.2,111.3 1199.5,127.1 1229.5,182.4 1234.2,199.8 1218.4,231.4 1240.6,283.5 
					1248.5,291.4 1286.4,307.2 1275.3,348.3 1256.4,361 1253.2,391 1262.7,413.1 1283.2,471.6 1288,489 1279.7,499.9 1294.4,514.3 
					1319.6,504.1 1338.6,503.8 1356.5,508.6 1388,501 1422,498.8 1444.3,522.1 1438.4,558.7 1411.1,546.9 1356.5,566.3 
					1339.2,552.4 1308,548.2 1297.4,550.6 1283.2,566.4 1273.7,577.5 1256.4,594.8 1227.9,628 1212.1,639.1 1188.4,637.5 
					1183.7,651.7 1172.6,684.9 1161.5,681.8 1120.5,681.8 1032,684.9 1009.8,656.5 997.2,659.6 964,664.4 964,620.1 967.2,610.6 
					926.1,575.9 962.4,564.8 975.1,536.4 984.5,515.8 1011.4,468.4 1027.2,471.6 1043,452.6 1055.7,419.4 1036.7,383.1 
					1074.6,365.7 1076.3,365.3 1088.4,361.5 1095.1,370.4 1108.5,388.3 1118.6,390.5 1155.5,351.4 1162.7,335.2 1137.6,325.7 
					1111.9,317.9 1104.1,300 1113.5,293.9 1142,283.8 1127.5,269.3 1124.2,249.2 1127.5,234.6 1098.5,225.1 1086.7,225.1 
					1083.4,203.4 1087.3,192.2 1079.5,179.3 1068.9,160.3 1078.3,141.9 1097.9,131.8 1097.3,116.2 1091.8,108.4 1081.7,108.9 
					1061.6,117.9 1045.9,106.7 1044.3,90.5 747.5,97 730.1,117.6 709.6,127.1 684.3,155.5 681.1,160.2 701.7,199.8 709.6,212.4 
					665.3,204.5 662.2,217.1 643.2,220.3 608.4,221.9 605.3,244 598.9,258.2 578.4,272.5 556.3,269.3 537.3,289.8 527.8,285.1 
					491.5,267.7 463,286.7 442.5,293 434.6,315.1 415.6,338.8 444.1,383.1 463,357.8 483.6,368.9 512,362.5 534.2,364.1 
					570.5,346.7 602.1,343.6 627.4,345.1 646.4,337.2 651.1,353 627.4,357.8 621.1,379.9 630.6,381.5 640,387.8 638.5,395.7 
					633.7,411.5 617.9,409.9 605.3,408.4 595.8,411.5 575.2,409.9 573.7,435.2 600.5,443.1 608.4,446.3 633.7,463.7 644.8,465.3 
					654.3,474.7 666.9,484.2 678,487.4 692.2,509.5 722.2,509.5 731.7,528.5 739.6,536.4 744.3,552.2 747.5,568 747.5,583.8 
					728.5,602.7 709.6,615.4 695.3,626.4 679.5,626.4 654.3,637.5 610.1,633 610.1,649.8 603.4,661.5 598.2,670.6 606.8,726 
					617.9,752.9 614.7,786.1 696.9,784.5 706.4,811.3 714.3,817.7 804.4,808.2 828.1,822.4 938.7,820.8 983,820.8 1013,817.7 
					1049.3,844.5 1125.2,843 1161.5,850.9 1205.8,852.4 1251.6,819.2 1294.3,824 1324.3,811.3 1330.6,790.8 1332.2,759.2 
					1397,749.7 1419.1,741.8 1447.6,735.5 1496.6,724.4 1536.1,733.9 1556.6,703.9 1558.2,680.2 1540.8,656.5 1529.8,631.2 
					1540.8,620.1 1558.2,604.3 1555,556.9 1610.4,542.7 1613.5,534.8 1630.9,515.8 1683,520.6 1700.4,500 1670.4,476.3 
					1645.1,457.4 1630.9,435.2 1627.7,378.3 1621.4,356.2 1593,324.6 1593,312 1600.9,299.3 1608.8,259.8 1594.6,229.8 
					1634.1,169.7 				"/>
			</defs>
			<clipPath id="SVGID_28_">
				<use xlink:href="#SVGID_27_"  style="overflow:visible;"/>
			</clipPath>
			<path id="path7958" inkscape:connector-curvature="0" sodipodi:nodetypes="ccccccccccccccccccccccccccccccccc" class="st17" d="
				M594.2,284.4l15.3,7.7l-3.4,11.8l-18.3,5.9l-7.3-4.8l-19.6,17l-17-1.7l-10.2,14.3l3.9,12.9L527,359.8l8.4,32.7l-9.1,14.3
				l-14.7-2.5l-16.9,12l-32.3-6.8L445,385.1l3.7-13.9l-0.6-19.9l22.6-20.2l12.6-17l-14-16l12.1-28.4l24.2,15.8l23.4-3.5l26.3-13.2
				l5.4-15l21.7-0.9l22.8-16.7l30.8,17.1l-14.2,14.2l-19.9,8.3l-8.1,3.5L594.2,284.4z"/>
		</g>
		<g>
			<defs>
				<polyline id="SVGID_29_" points="1634.3,169.8 1537.7,106.5 1510.8,135 1518.7,65.4 1487.1,22.8 1400.2,18 1368.6,32.2 
					1253.2,27.5 1261.1,86 1243.7,90.7 1234.2,111.3 1199.5,127.1 1229.5,182.4 1234.2,199.8 1218.4,231.4 1240.6,283.5 
					1248.5,291.4 1286.4,307.2 1275.3,348.3 1256.4,361 1253.2,391 1262.7,413.1 1283.2,471.6 1288,489 1279.7,499.9 1294.4,514.3 
					1319.6,504.1 1338.6,503.8 1356.5,508.6 1388,501 1422,498.8 1444.3,522.1 1438.4,558.7 1411.1,546.9 1356.5,566.3 
					1339.2,552.4 1308,548.2 1297.4,550.6 1283.2,566.4 1273.7,577.5 1256.4,594.8 1227.9,628 1212.1,639.1 1188.4,637.5 
					1183.7,651.7 1172.6,684.9 1161.5,681.8 1120.5,681.8 1032,684.9 1009.8,656.5 997.2,659.6 964,664.4 964,620.1 967.2,610.6 
					926.1,575.9 962.4,564.8 975.1,536.4 984.5,515.8 1011.4,468.4 1027.2,471.6 1043,452.6 1055.7,419.4 1036.7,383.1 
					1074.6,365.7 1076.3,365.3 1088.4,361.5 1095.1,370.4 1108.5,388.3 1118.6,390.5 1155.5,351.4 1162.7,335.2 1137.6,325.7 
					1111.9,317.9 1104.1,300 1113.5,293.9 1142,283.8 1127.5,269.3 1124.2,249.2 1127.5,234.6 1098.5,225.1 1086.7,225.1 
					1083.4,203.4 1087.3,192.2 1079.5,179.3 1068.9,160.3 1078.3,141.9 1097.9,131.8 1097.3,116.2 1091.8,108.4 1081.7,108.9 
					1061.6,117.9 1045.9,106.7 1044.3,90.5 747.5,97 730.1,117.6 709.6,127.1 684.3,155.5 681.1,160.2 701.7,199.8 709.6,212.4 
					665.3,204.5 662.2,217.1 643.2,220.3 608.4,221.9 605.3,244 598.9,258.2 578.4,272.5 556.3,269.3 537.3,289.8 527.8,285.1 
					491.5,267.7 463,286.7 442.5,293 434.6,315.1 415.6,338.8 444.1,383.1 463,357.8 483.6,368.9 512,362.5 534.2,364.1 
					570.5,346.7 602.1,343.6 627.4,345.1 646.4,337.2 651.1,353 627.4,357.8 621.1,379.9 630.6,381.5 640,387.8 638.5,395.7 
					633.7,411.5 617.9,409.9 605.3,408.4 595.8,411.5 575.2,409.9 573.7,435.2 600.5,443.1 608.4,446.3 633.7,463.7 644.8,465.3 
					654.3,474.7 666.9,484.2 678,487.4 692.2,509.5 722.2,509.5 731.7,528.5 739.6,536.4 744.3,552.2 747.5,568 747.5,583.8 
					728.5,602.7 709.6,615.4 695.3,626.4 679.5,626.4 654.3,637.5 610.1,633 610.1,649.8 603.4,661.5 598.2,670.6 606.8,726 
					617.9,752.9 614.7,786.1 696.9,784.5 706.4,811.3 714.3,817.7 804.4,808.2 828.1,822.4 938.7,820.8 983,820.8 1013,817.7 
					1049.3,844.5 1125.2,843 1161.5,850.9 1205.8,852.4 1251.6,819.2 1294.3,824 1324.3,811.3 1330.6,790.8 1332.2,759.2 
					1397,749.7 1419.1,741.8 1447.6,735.5 1496.6,724.4 1536.1,733.9 1556.6,703.9 1558.2,680.2 1540.8,656.5 1529.8,631.2 
					1540.8,620.1 1558.2,604.3 1555,556.9 1610.4,542.7 1613.5,534.8 1630.9,515.8 1683,520.6 1700.4,500 1670.4,476.3 
					1645.1,457.4 1630.9,435.2 1627.7,378.3 1621.4,356.2 1593,324.6 1593,312 1600.9,299.3 1608.8,259.8 1594.6,229.8 
					1634.1,169.7 				"/>
			</defs>
			<clipPath id="SVGID_30_">
				<use xlink:href="#SVGID_29_"  style="overflow:visible;"/>
			</clipPath>
			<path id="path7960" inkscape:connector-curvature="0" sodipodi:nodetypes="ccccccccccccccccccccccccccccccccc" class="st18" d="
				M809.8,221.9l-8.4-0.6l-11.2,0.3l-12.1-8.7l-8.3-5.6l-7.6-6.8l-5.2-7.3l-6,5.1l-10.3-2.8l-10-1.4l-13.2-1.9l-11.2-11.4l-9.5-4.3
				l-8.2-11.2l-4.6-18.4l5.7-17.5l16.9-3.4l14.4-5.3l22.8,4.5l15.1,0.6L773,122l18.2,11.1l0.1,17.7l8.2,11.9l13.4,9.6l9.2,8.3
				l11.6,12.6l11.8,13.6l-6,23.5l-10.5-4.9l-8.7-1.6l-8-7.5L809.8,221.9z"/>
		</g>
		<g>
			<defs>
				<polyline id="SVGID_31_" points="1634.3,169.8 1537.7,106.5 1510.8,135 1518.7,65.4 1487.1,22.8 1400.2,18 1368.6,32.2 
					1253.2,27.5 1261.1,86 1243.7,90.7 1234.2,111.3 1199.5,127.1 1229.5,182.4 1234.2,199.8 1218.4,231.4 1240.6,283.5 
					1248.5,291.4 1286.4,307.2 1275.3,348.3 1256.4,361 1253.2,391 1262.7,413.1 1283.2,471.6 1288,489 1279.7,499.9 1294.4,514.3 
					1319.6,504.1 1338.6,503.8 1356.5,508.6 1388,501 1422,498.8 1444.3,522.1 1438.4,558.7 1411.1,546.9 1356.5,566.3 
					1339.2,552.4 1308,548.2 1297.4,550.6 1283.2,566.4 1273.7,577.5 1256.4,594.8 1227.9,628 1212.1,639.1 1188.4,637.5 
					1183.7,651.7 1172.6,684.9 1161.5,681.8 1120.5,681.8 1032,684.9 1009.8,656.5 997.2,659.6 964,664.4 964,620.1 967.2,610.6 
					926.1,575.9 962.4,564.8 975.1,536.4 984.5,515.8 1011.4,468.4 1027.2,471.6 1043,452.6 1055.7,419.4 1036.7,383.1 
					1074.6,365.7 1076.3,365.3 1088.4,361.5 1095.1,370.4 1108.5,388.3 1118.6,390.5 1155.5,351.4 1162.7,335.2 1137.6,325.7 
					1111.9,317.9 1104.1,300 1113.5,293.9 1142,283.8 1127.5,269.3 1124.2,249.2 1127.5,234.6 1098.5,225.1 1086.7,225.1 
					1083.4,203.4 1087.3,192.2 1079.5,179.3 1068.9,160.3 1078.3,141.9 1097.9,131.8 1097.3,116.2 1091.8,108.4 1081.7,108.9 
					1061.6,117.9 1045.9,106.7 1044.3,90.5 747.5,97 730.1,117.6 709.6,127.1 684.3,155.5 681.1,160.2 701.7,199.8 709.6,212.4 
					665.3,204.5 662.2,217.1 643.2,220.3 608.4,221.9 605.3,244 598.9,258.2 578.4,272.5 556.3,269.3 537.3,289.8 527.8,285.1 
					491.5,267.7 463,286.7 442.5,293 434.6,315.1 415.6,338.8 444.1,383.1 463,357.8 483.6,368.9 512,362.5 534.2,364.1 
					570.5,346.7 602.1,343.6 627.4,345.1 646.4,337.2 651.1,353 627.4,357.8 621.1,379.9 630.6,381.5 640,387.8 638.5,395.7 
					633.7,411.5 617.9,409.9 605.3,408.4 595.8,411.5 575.2,409.9 573.7,435.2 600.5,443.1 608.4,446.3 633.7,463.7 644.8,465.3 
					654.3,474.7 666.9,484.2 678,487.4 692.2,509.5 722.2,509.5 731.7,528.5 739.6,536.4 744.3,552.2 747.5,568 747.5,583.8 
					728.5,602.7 709.6,615.4 695.3,626.4 679.5,626.4 654.3,637.5 610.1,633 610.1,649.8 603.4,661.5 598.2,670.6 606.8,726 
					617.9,752.9 614.7,786.1 696.9,784.5 706.4,811.3 714.3,817.7 804.4,808.2 828.1,822.4 938.7,820.8 983,820.8 1013,817.7 
					1049.3,844.5 1125.2,843 1161.5,850.9 1205.8,852.4 1251.6,819.2 1294.3,824 1324.3,811.3 1330.6,790.8 1332.2,759.2 
					1397,749.7 1419.1,741.8 1447.6,735.5 1496.6,724.4 1536.1,733.9 1556.6,703.9 1558.2,680.2 1540.8,656.5 1529.8,631.2 
					1540.8,620.1 1558.2,604.3 1555,556.9 1610.4,542.7 1613.5,534.8 1630.9,515.8 1683,520.6 1700.4,500 1670.4,476.3 
					1645.1,457.4 1630.9,435.2 1627.7,378.3 1621.4,356.2 1593,324.6 1593,312 1600.9,299.3 1608.8,259.8 1594.6,229.8 
					1634.1,169.7 				"/>
			</defs>
			<clipPath id="SVGID_32_">
				<use xlink:href="#SVGID_31_"  style="overflow:visible;"/>
			</clipPath>
			<path id="path7962" inkscape:connector-curvature="0" sodipodi:nodetypes="ccccccccccccccccccccccccccccccccc" class="st19" d="
				M793.8,205.1l-2.3,3.4l-9,0.3l-9.6-7.1l-2.2-9.3l-6.1-5.6l-5.6-4.9l-6.6,2.3l-8.6-1.6l-4.3,6l-18.4-1.6l-11.1-7.2l-8.2-8.6
				l-5.8-4.5l-2.8-22.2l6.9-10l13.6-2.9l11.6-4.4l18.3,3.6l11,4.9l10.2-4.3l17.4,4.9l-0.4,15.4l4,13.2l13.2,4.3l7.3,6.8l7.8,11
				l10.9,10.5l-5,19.4l-11.2-5.5l-8.6-4.9l-3-5.7L793.8,205.1z"/>
		</g>
		<g>
			<defs>
				<polyline id="SVGID_33_" points="1634.3,169.8 1537.7,106.5 1510.8,135 1518.7,65.4 1487.1,22.8 1400.2,18 1368.6,32.2 
					1253.2,27.5 1261.1,86 1243.7,90.7 1234.2,111.3 1199.5,127.1 1229.5,182.4 1234.2,199.8 1218.4,231.4 1240.6,283.5 
					1248.5,291.4 1286.4,307.2 1275.3,348.3 1256.4,361 1253.2,391 1262.7,413.1 1283.2,471.6 1288,489 1279.7,499.9 1294.4,514.3 
					1319.6,504.1 1338.6,503.8 1356.5,508.6 1388,501 1422,498.8 1444.3,522.1 1438.4,558.7 1411.1,546.9 1356.5,566.3 
					1339.2,552.4 1308,548.2 1297.4,550.6 1283.2,566.4 1273.7,577.5 1256.4,594.8 1227.9,628 1212.1,639.1 1188.4,637.5 
					1183.7,651.7 1172.6,684.9 1161.5,681.8 1120.5,681.8 1032,684.9 1009.8,656.5 997.2,659.6 964,664.4 964,620.1 967.2,610.6 
					926.1,575.9 962.4,564.8 975.1,536.4 984.5,515.8 1011.4,468.4 1027.2,471.6 1043,452.6 1055.7,419.4 1036.7,383.1 
					1074.6,365.7 1076.3,365.3 1088.4,361.5 1095.1,370.4 1108.5,388.3 1118.6,390.5 1155.5,351.4 1162.7,335.2 1137.6,325.7 
					1111.9,317.9 1104.1,300 1113.5,293.9 1142,283.8 1127.5,269.3 1124.2,249.2 1127.5,234.6 1098.5,225.1 1086.7,225.1 
					1083.4,203.4 1087.3,192.2 1079.5,179.3 1068.9,160.3 1078.3,141.9 1097.9,131.8 1097.3,116.2 1091.8,108.4 1081.7,108.9 
					1061.6,117.9 1045.9,106.7 1044.3,90.5 747.5,97 730.1,117.6 709.6,127.1 684.3,155.5 681.1,160.2 701.7,199.8 709.6,212.4 
					665.3,204.5 662.2,217.1 643.2,220.3 608.4,221.9 605.3,244 598.9,258.2 578.4,272.5 556.3,269.3 537.3,289.8 527.8,285.1 
					491.5,267.7 463,286.7 442.5,293 434.6,315.1 415.6,338.8 444.1,383.1 463,357.8 483.6,368.9 512,362.5 534.2,364.1 
					570.5,346.7 602.1,343.6 627.4,345.1 646.4,337.2 651.1,353 627.4,357.8 621.1,379.9 630.6,381.5 640,387.8 638.5,395.7 
					633.7,411.5 617.9,409.9 605.3,408.4 595.8,411.5 575.2,409.9 573.7,435.2 600.5,443.1 608.4,446.3 633.7,463.7 644.8,465.3 
					654.3,474.7 666.9,484.2 678,487.4 692.2,509.5 722.2,509.5 731.7,528.5 739.6,536.4 744.3,552.2 747.5,568 747.5,583.8 
					728.5,602.7 709.6,615.4 695.3,626.4 679.5,626.4 654.3,637.5 610.1,633 610.1,649.8 603.4,661.5 598.2,670.6 606.8,726 
					617.9,752.9 614.7,786.1 696.9,784.5 706.4,811.3 714.3,817.7 804.4,808.2 828.1,822.4 938.7,820.8 983,820.8 1013,817.7 
					1049.3,844.5 1125.2,843 1161.5,850.9 1205.8,852.4 1251.6,819.2 1294.3,824 1324.3,811.3 1330.6,790.8 1332.2,759.2 
					1397,749.7 1419.1,741.8 1447.6,735.5 1496.6,724.4 1536.1,733.9 1556.6,703.9 1558.2,680.2 1540.8,656.5 1529.8,631.2 
					1540.8,620.1 1558.2,604.3 1555,556.9 1610.4,542.7 1613.5,534.8 1630.9,515.8 1683,520.6 1700.4,500 1670.4,476.3 
					1645.1,457.4 1630.9,435.2 1627.7,378.3 1621.4,356.2 1593,324.6 1593,312 1600.9,299.3 1608.8,259.8 1594.6,229.8 
					1634.1,169.7 				"/>
			</defs>
			<clipPath id="SVGID_34_">
				<use xlink:href="#SVGID_33_"  style="overflow:visible;"/>
			</clipPath>
			<path id="path7964" inkscape:connector-curvature="0" sodipodi:nodetypes="cccccccccccccccccccccccccccccccc" class="st20" d="
				M792.3,202.6l-6.4,0l-5.6-7.2l1.4-3.8l-11.4-6.4l-1.6-7.6l-14.8-4.3l-5.9,3.3l-7.8-3.1L731,183l-14.7-3.8l-0.9-6.7l-8.5-5.8
				l-4.6-17.1l8-8.3l11.7-6.6l10.8,3.7l8.7-3.9l10.7,7l16.6,1.2l6.8,0.9l4.8,13.3l5.2,9.7l10.5,9.8l8.3,0.5l3.6,9.3l8.4,8.9
				l-0.8,14.4l-9.2-4.4l-7.1-7.6l-8-4.5L792.3,202.6z"/>
		</g>
		<g>
			<defs>
				<polyline id="SVGID_35_" points="1634.3,169.8 1537.7,106.5 1510.8,135 1518.7,65.4 1487.1,22.8 1400.2,18 1368.6,32.2 
					1253.2,27.5 1261.1,86 1243.7,90.7 1234.2,111.3 1199.5,127.1 1229.5,182.4 1234.2,199.8 1218.4,231.4 1240.6,283.5 
					1248.5,291.4 1286.4,307.2 1275.3,348.3 1256.4,361 1253.2,391 1262.7,413.1 1283.2,471.6 1288,489 1279.7,499.9 1294.4,514.3 
					1319.6,504.1 1338.6,503.8 1356.5,508.6 1388,501 1422,498.8 1444.3,522.1 1438.4,558.7 1411.1,546.9 1356.5,566.3 
					1339.2,552.4 1308,548.2 1297.4,550.6 1283.2,566.4 1273.7,577.5 1256.4,594.8 1227.9,628 1212.1,639.1 1188.4,637.5 
					1183.7,651.7 1172.6,684.9 1161.5,681.8 1120.5,681.8 1032,684.9 1009.8,656.5 997.2,659.6 964,664.4 964,620.1 967.2,610.6 
					926.1,575.9 962.4,564.8 975.1,536.4 984.5,515.8 1011.4,468.4 1027.2,471.6 1043,452.6 1055.7,419.4 1036.7,383.1 
					1074.6,365.7 1076.3,365.3 1088.4,361.5 1095.1,370.4 1108.5,388.3 1118.6,390.5 1155.5,351.4 1162.7,335.2 1137.6,325.7 
					1111.9,317.9 1104.1,300 1113.5,293.9 1142,283.8 1127.5,269.3 1124.2,249.2 1127.5,234.6 1098.5,225.1 1086.7,225.1 
					1083.4,203.4 1087.3,192.2 1079.5,179.3 1068.9,160.3 1078.3,141.9 1097.9,131.8 1097.3,116.2 1091.8,108.4 1081.7,108.9 
					1061.6,117.9 1045.9,106.7 1044.3,90.5 747.5,97 730.1,117.6 709.6,127.1 684.3,155.5 681.1,160.2 701.7,199.8 709.6,212.4 
					665.3,204.5 662.2,217.1 643.2,220.3 608.4,221.9 605.3,244 598.9,258.2 578.4,272.5 556.3,269.3 537.3,289.8 527.8,285.1 
					491.5,267.7 463,286.7 442.5,293 434.6,315.1 415.6,338.8 444.1,383.1 463,357.8 483.6,368.9 512,362.5 534.2,364.1 
					570.5,346.7 602.1,343.6 627.4,345.1 646.4,337.2 651.1,353 627.4,357.8 621.1,379.9 630.6,381.5 640,387.8 638.5,395.7 
					633.7,411.5 617.9,409.9 605.3,408.4 595.8,411.5 575.2,409.9 573.7,435.2 600.5,443.1 608.4,446.3 633.7,463.7 644.8,465.3 
					654.3,474.7 666.9,484.2 678,487.4 692.2,509.5 722.2,509.5 731.7,528.5 739.6,536.4 744.3,552.2 747.5,568 747.5,583.8 
					728.5,602.7 709.6,615.4 695.3,626.4 679.5,626.4 654.3,637.5 610.1,633 610.1,649.8 603.4,661.5 598.2,670.6 606.8,726 
					617.9,752.9 614.7,786.1 696.9,784.5 706.4,811.3 714.3,817.7 804.4,808.2 828.1,822.4 938.7,820.8 983,820.8 1013,817.7 
					1049.3,844.5 1125.2,843 1161.5,850.9 1205.8,852.4 1251.6,819.2 1294.3,824 1324.3,811.3 1330.6,790.8 1332.2,759.2 
					1397,749.7 1419.1,741.8 1447.6,735.5 1496.6,724.4 1536.1,733.9 1556.6,703.9 1558.2,680.2 1540.8,656.5 1529.8,631.2 
					1540.8,620.1 1558.2,604.3 1555,556.9 1610.4,542.7 1613.5,534.8 1630.9,515.8 1683,520.6 1700.4,500 1670.4,476.3 
					1645.1,457.4 1630.9,435.2 1627.7,378.3 1621.4,356.2 1593,324.6 1593,312 1600.9,299.3 1608.8,259.8 1594.6,229.8 
					1634.1,169.7 				"/>
			</defs>
			<clipPath id="SVGID_36_">
				<use xlink:href="#SVGID_35_"  style="overflow:visible;"/>
			</clipPath>
			<path id="path7976" inkscape:connector-curvature="0" sodipodi:nodetypes="ccccccccccccccccccccccccccc" class="st21" d="
				M866.2,96.1l-10.5,19.1l2.8,19.6l22.2,19.3l-12.5,20.1l5.8,27.1l-32.3,20l35,34.4l27.5,14.9l34.8,22.2l42.9-9.1l61.5-25.8
				l8.8-45.2L1074,176v-23.2l8.8-16.6l22.1-11.1l-16.6-35.4l-12.2-11.2L1066,65l-21.7,8.4l-11.9-2.8l-11.3,10.8l-39.9,2.7l-17.7,1.1
				l-26.5,3.3l-25.4-5.5"/>
		</g>
		<g id="g8208" class="st22">
			<path id="path8061" inkscape:connector-curvature="0" class="st23" d="M725.4,300.9l-196,142.2l151.7-14.2L725.4,300.9z"/>
			<path id="path8063" inkscape:connector-curvature="0" class="st24" d="M519,173.5l26.8,212.3L733.5,359L519,173.5z"/>
			<path id="path8065" inkscape:connector-curvature="0" class="st25" d="M678.6,164.1l26.8,194.5l187.7-151.3L678.6,164.1z"/>
			<path id="path8067" inkscape:connector-curvature="0" class="st26" d="M1136.6,410.7l-207.8,51L977,645.1L1136.6,410.7z"/>
			<path id="path8069" inkscape:connector-curvature="0" class="st27" d="M610.6,507l26.8,212.3l187.7-26.8L610.6,507z"/>
			<path id="path8071" inkscape:connector-curvature="0" class="st28" d="M1063.4,38.5L774,39.2l215.7,182.1L1063.4,38.5z"/>
			<path id="path8073" inkscape:connector-curvature="0" class="st29" d="M961.1,48.4l-152,100.6l116.2,62.6L961.1,48.4z"/>
			<path id="path8075" inkscape:connector-curvature="0" class="st29" d="M1040.1,279.1l-152,100.6l116.2,62.6L1040.1,279.1z"/>
			<path id="path8077" inkscape:connector-curvature="0" class="st29" d="M863.1,391.3l-152,100.6l116.2,62.6L863.1,391.3z"/>
			<path id="path8079" inkscape:connector-curvature="0" class="st30" d="M913.9,656L794.2,530.3l-31.7,127.3L913.9,656z"/>
			<path id="path8081" inkscape:connector-curvature="0" class="st23" d="M957.7,421l-196,142.2L913.4,549L957.7,421z"/>
			<path id="path8083" inkscape:connector-curvature="0" class="st31" d="M982.8,747.5L863,537l-2.6,152.4L982.8,747.5z"/>
			<path id="path8085" inkscape:connector-curvature="0" class="st32" d="M995.3,290.3L866.8,185.5L864,349.2L995.3,290.3z"/>
			<path id="path8087" inkscape:connector-curvature="0" class="st23" d="M1158.4,384l-26.7-99.1l-148,154.8L1158.4,384z"/>
			<path id="path8089" inkscape:connector-curvature="0" class="st26" d="M1102.1,59.8l-93.3,212.3l202.9-26.8L1102.1,59.8z"/>
			<path id="path8091" inkscape:connector-curvature="0" class="st23" d="M756.8,355.2l-196,142.2l151.7-14.2L756.8,355.2z"/>
			<path id="path8093" inkscape:connector-curvature="0" class="st26" d="M833.5,273.5l-110.2,97.7l157.3,74.3L833.5,273.5z"/>
			<path id="path8095" inkscape:connector-curvature="0" class="st30" d="M943.7,454.5l-152,100.6l116.2,62.6L943.7,454.5z"/>
			<path id="path8097" inkscape:connector-curvature="0" class="st31" d="M673.3,583.4L534.2,725.6l146-14.2L673.3,583.4z"/>
			<path id="path8099" inkscape:connector-curvature="0" class="st26" d="M741.8,466.8l15.4,139.1l107.5-188.4L741.8,466.8z"/>
			<path id="path8101" inkscape:connector-curvature="0" class="st30" d="M866.3,680.5l-152,100.6l116.2,62.6L866.3,680.5z"/>
			<path id="path8103" inkscape:connector-curvature="0" class="st26" d="M685.1,60.2l26.8,160.2l187.7-85.3L685.1,60.2z"/>
			<path id="path8105" inkscape:connector-curvature="0" class="st29" d="M749.3,220.1l-152,51.6l116.2,71.8L749.3,220.1z"/>
			<path id="path8107" inkscape:connector-curvature="0" class="st29" d="M572.3,276.2l-152,51.6l116.2,71.8L572.3,276.2z"/>
			<path id="path8109" inkscape:connector-curvature="0" class="st23" d="M666.9,317.7l-196,76.5l151.7,17.3L666.9,317.7z"/>
			<path id="path8111" inkscape:connector-curvature="0" class="st23" d="M713.4,237.6L593.7,136l-2.6,123L713.4,237.6z"/>
			<path id="path8113" inkscape:connector-curvature="0" class="st33" d="M820.6,337.2L794,253.2l-148,95.6L820.6,337.2z"/>
			<path id="path8115" inkscape:connector-curvature="0" class="st23" d="M515.2,243.8l-196,76.5l151.7,17.3L515.2,243.8z"/>
			<path id="path8117" inkscape:connector-curvature="0" class="st27" d="M846.7,532l-110.2,57.2l157.3,88.9L846.7,532z"/>
			<path id="path8119" inkscape:connector-curvature="0" class="st29" d="M603.7,306.1l-152,51.6L568,429.5L603.7,306.1z"/>
			<path id="path8121" inkscape:connector-curvature="0" class="st26" d="M419.7,322.5l15.4,113.9l107.5-130L419.7,322.5z"/>
			<path id="path8123" inkscape:connector-curvature="0" class="st28" d="M524.1,212.9l-90.5,122.9l138.6-29.2L524.1,212.9z"/>
			<path id="path8125" inkscape:connector-curvature="0" class="st34" d="M888.4,367.1L797.9,490l138.6-29.2L888.4,367.1z"/>
			<path id="path8127" inkscape:connector-curvature="0" class="st35" d="M953.2,523.5l-90.5,122.9l138.6-29.2L953.2,523.5z"/>
			<path id="path8129" inkscape:connector-curvature="0" class="st24" d="M1150.9,175.1L985.8,281.5l216.3,106.4L1150.9,175.1z"/>
			<path id="path8131" inkscape:connector-curvature="0" class="st26" d="M929.7,358.7L748.5,472.5L852,631.4L929.7,358.7z"/>
			<path id="path8133" inkscape:connector-curvature="0" class="st30" d="M1199,551.4L1043.8,456l-7.7,131.8L1199,551.4z"/>
			<path id="path8135" inkscape:connector-curvature="0" class="st29" d="M1022.7,438.2l-155.3-95.4l-7.7,131.8L1022.7,438.2z"/>
			<path id="path8137" inkscape:connector-curvature="0" class="st36" d="M758.2,592.5l58.3-172.7l-130.2,21.9L758.2,592.5z"/>
			<path id="path8139" inkscape:connector-curvature="0" class="st37" d="M1035.6,536.5L824,418.8l76.9,131.6L1035.6,536.5z"/>
			<path id="path8141" inkscape:connector-curvature="0" class="st31" d="M703.2,696.9l140.3-197.3l-139.2,61.9L703.2,696.9z"/>
			<path id="path8143" inkscape:connector-curvature="0" class="st23" d="M1178.7,494.1l39.4-150.4l-141.4,62.9L1178.7,494.1z"/>
			<path id="path8145" inkscape:connector-curvature="0" class="st25" d="M1134.9,393l-135.1-58.7l-1,174L1134.9,393z"/>
			<path id="path8147" inkscape:connector-curvature="0" class="st38" d="M1037.3,558.1L882,462.7l-7.7,131.8L1037.3,558.1z"/>
			<path id="path8149" inkscape:connector-curvature="0" class="st39" d="M903,360.1l-119.7,72.6l216.2,18.1L903,360.1z"/>
			<path id="path8151" inkscape:connector-curvature="0" class="st23" d="M1083.7,414.8l65-59.6l-149.1-93.9L1083.7,414.8z"/>
			<path id="path8153" inkscape:connector-curvature="0" class="st27" d="M1053.5,590l-98.3-75.8l-14.3,180.1L1053.5,590z"/>
			<path id="path8155" inkscape:connector-curvature="0" class="st40" d="M1055.3,450.9l-149.6-30.2L990.6,534L1055.3,450.9z"/>
			<path id="path8157" inkscape:connector-curvature="0" class="st35" d="M992.2,638.2L842.6,608l84.9,113.3L992.2,638.2z"/>
		</g>
	</g>
	<g id="layer4" inkscape:groupmode="layer" inkscape:label="north" class="st1">
		
			<path id="path5239" inkscape:connector-curvature="0" sodipodi:nodetypes="cccccccccccccccccccccccccccccccccccccccccccccccccccccccccccccccccccccccc" class="st41" d="
			M148.5-2.9l1,12.1l21.2,22.2l20.2-9.1L202,34.5l22.2,6.1l31.3-5.1l8.1-15.2l18.2,8.1l48.5-3l6.1-8.1l19.2,10.2l31.3-1.1L400,14.3
			h22.2l27.3-11.1l12.1,8.1v9.1l11.1,11.1l24.6,2.6l12.8-9.6l21.2-11.1l4-5.1L544,8l6.5,11.4l27.3,16.2l12.1,16.2h15.2l10.1-7.1
			l34.3-5.1l6.1-11.1l16.2,5.1l-1,10.1l-1,19.2l5.8,25.1l-26.9,2.9l1.3,27.2l-18.1,21.6l10.6,11.8l14-3.5l17.3-18.2l4.4-14.9
			l16.7-4.9l6.4-7.8l24.2,2.1l7-3.9l17.2,5.1l19.2-4h12.1l33.3,6.1l14.1-5.1h25.3l56.6,17.2l23.2-13.1l23.2,3l34.3,1l34.3,1
			l24.2-14.1l9.1-13.1l21.2-22.2l18.2-5.1l60.6,7.1h18.2l13.2-12.6l5.4-15l23.1,3.3l15.1-15l15.7-5.7l12.1-18.2l-4-12.1L155.7-12.9
			L148.5-2.9z"/>
		<path id="path5241" inkscape:connector-curvature="0" sodipodi:nodetypes="cccccccccccccc" class="st41" d="M357,45l-8.7,20.4
			l-11.7,12l16.8,1.1l10.1-12.9l15.6,5.3l24.3-12.3l7.3-13.4l-10.3-8.9l-13.1,10.3l-8.9-7.3l-7.5-1.4l-9.2,4.5L357,45z"/>
		<path id="path5243" inkscape:connector-curvature="0" sodipodi:nodetypes="ccccccccccccccccccc" class="st41" d="M506.8,67.9
			l-6.7,8.9l-1.7,11.7l7.3,6.7l-6.7,12.6l20.7,1.7l7.3-8.4l11.2-3.6l-1.7-15.4l4.2-13.4l11.2-4.7l6.4-12l-3.4-10.3L540,29l-6.1,6.7
			l-8.1,6.7l-17.9,5l5.9,17L506.8,67.9z"/>
		<path id="path5245" inkscape:connector-curvature="0" sodipodi:nodetypes="cccccccc" class="st41" d="M620.5,76.3l-4.1,5.3
			l-1.6,6.9l10.3,6.7l17.8-6.3l-1.2-8.5l-13.4-10.3L620.5,76.3z"/>
		<path id="path5249" inkscape:connector-curvature="0" sodipodi:nodetypes="ccccccc" class="st41" d="M611,58.1l-0.8,6.7h9.7
			l10.3-6.7l1.4-4.1l-4.5-3.4L611,58.1z"/>
		<path id="path5251" inkscape:connector-curvature="0" sodipodi:nodetypes="ccccc" class="st41" d="M649.3,48l-4.7,5.7l5.9,4.5
			l12.6-0.8L649.3,48z"/>
		<path id="path5253" inkscape:connector-curvature="0" sodipodi:nodetypes="cccc" class="st41" d="M655.8,75.9l-2.8,4.7h6.1
			L655.8,75.9z"/>
		<path id="path5255" inkscape:connector-curvature="0" sodipodi:nodetypes="ccccccccccccccccccccccccccccccccccc" class="st41" d="
			M1280.9,3l-4.7,17.4l-19.8,30.8l-18.6,17.4L1223.6,97l-36.7-7.9l-27.7-8.7l-25.1,3.3l-12,14.1l-16.6,13.4l8.7,12.6l33.2,3.2
			l7.9,22.1l30.8,1.6h56.1l25.3-20.5l16.6-1.6l20.5-30.8l30-21.3l19-9.5l2.4-27.7l22.1,28.4l11.1,8.7l30,3.2l17.4,4L1465,71
			l19.8-11.1l19.8,1.6l23.7-18.2l21.3-10.3l13.4-8.7V2.2l-46.6-20.5L1307-15.7L1280.9,3z"/>
		<g id="g7748">
			<g id="g8612">
				<path id="path5259-3" inkscape:connector-curvature="0" class="st42" d="M165.2-33.7l-58.5,82.6l88.9,16.6L165.2-33.7z"/>
				<path id="path5261-8" inkscape:connector-curvature="0" class="st43" d="M280.5-26.9L262,80.1L164.8-34.5L280.5-26.9z"/>
				<path id="path5263-9" inkscape:connector-curvature="0" class="st44" d="M198.4-46.3l-81,128.8l146.2,25.3L198.4-46.3z"/>
				<path id="path5265-5" inkscape:connector-curvature="0" class="st42" d="M270.8-49.4L168,52.3l128.5,43.6L270.8-49.4z"/>
				<path id="path5277-4" inkscape:connector-curvature="0" class="st44" d="M343.8-63.2l-99.9,16L294.2,28L343.8-63.2z"/>
				<path id="path5279-8" inkscape:connector-curvature="0" class="st43" d="M419.7,24l-89.5,61.6L344.1-64L419.7,24z"/>
				<path id="path5281-9" inkscape:connector-curvature="0" class="st45" d="M376-48.3L227.3-16l84.2,122.1L376-48.3z"/>
				<path id="path5283-0" inkscape:connector-curvature="0" class="st43" d="M428.9,1.3L284.4-1l58.8,122.3L428.9,1.3z"/>
				<path id="path5285-4" inkscape:connector-curvature="0" class="st46" d="M231.9-106.6l-81,128.8l146.2,25.3L231.9-106.6z"/>
				<path id="path5287-2" inkscape:connector-curvature="0" class="st47" d="M417.3-49.7l-81,128.8l146.2,25.3L417.3-49.7z"/>
				<path id="path5289-9" inkscape:connector-curvature="0" class="st42" d="M450.8-51.6L556.2,58.1l59.9-135.7L450.8-51.6z"/>
				<path id="path5291-5" inkscape:connector-curvature="0" class="st48" d="M505.7-39.6l-81,128.8l146.2,25.3L505.7-39.6z"/>
				<path id="path5293-3" inkscape:connector-curvature="0" class="st44" d="M529.1-9.4l-81,128.8l146.2,25.3L529.1-9.4z"/>
				<path id="path5295-8" inkscape:connector-curvature="0" class="st49" d="M583.5-36.4l-152,5.7l61.6,135L583.5-36.4z"/>
				<path id="path5297-3" inkscape:connector-curvature="0" class="st43" d="M483.9-32.8L465.3,74.3L368.1-40.3L483.9-32.8z"/>
				<path id="path5299-8" inkscape:connector-curvature="0" class="st50" d="M458.4-60L355.6,41.7l128.5,43.6L458.4-60z"/>
				<path id="path5301-9" inkscape:connector-curvature="0" class="st51" d="M676.1-38.1L657.5,68.9L560.3-45.6L676.1-38.1z"/>
				<path id="path5303-5" inkscape:connector-curvature="0" class="st52" d="M666.4-60.6L563.6,41.1l128.5,43.6L666.4-60.6z"/>
				<path id="path5305-1" inkscape:connector-curvature="0" class="st49" d="M662.7,59.1l-18.6,107.1L546.9,51.6L662.7,59.1z"/>
				<path id="path5307-9" inkscape:connector-curvature="0" class="st44" d="M653,36.6L550.2,138.3l128.5,43.6L653,36.6z"/>
				<path id="path5309-7" inkscape:connector-curvature="0" class="st53" d="M699.6,17.8L681,124.8L583.8,10.2L699.6,17.8z"/>
				<path id="path5311-8" inkscape:connector-curvature="0" class="st53" d="M689.9-4.7L587.1,97l128.5,43.6L689.9-4.7z"/>
				<path id="path5313-8" inkscape:connector-curvature="0" class="st53" d="M823.6-24.7L805,82.4L707.9-32.2L823.6-24.7z"/>
				<path id="path5315-9" inkscape:connector-curvature="0" class="st53" d="M813.9-47.2L711.1,54.5l128.5,43.6L813.9-47.2z"/>
				<path id="path5317-3" inkscape:connector-curvature="0" class="st53" d="M759.9-18L741.3,89.1L644.2-25.5L759.9-18z"/>
				<path id="path5319-4" inkscape:connector-curvature="0" class="st44" d="M750.2-40.5L647.4,61.2l128.5,43.6L750.2-40.5z"/>
				<path id="path5321-9" inkscape:connector-curvature="0" class="st51" d="M804.1,135.8l-107,19.1l74.5-130.4L804.1,135.8z"/>
				<path id="path5323-4" inkscape:connector-curvature="0" class="st44" d="M821.9,119L691.2,57.1l2.9,135.7L821.9,119z"/>
				<path id="path5325-0" inkscape:connector-curvature="0" class="st42" d="M905.8,78.8l-107,19.1l74.5-130.4L905.8,78.8z"/>
				<path id="path5327-3" inkscape:connector-curvature="0" class="st51" d="M923.6,62.1L792.9,0.1l2.9,135.7L923.6,62.1z"/>
				<path id="path5329-2" inkscape:connector-curvature="0" class="st44" d="M886.8,24.1l-107,19.1l74.5-130.4L886.8,24.1z"/>
				<path id="path5331-7" inkscape:connector-curvature="0" class="st53" d="M937.2,10.8L806.6-51.2l2.9,135.7L937.2,10.8z"/>
				<path id="path5333-6" inkscape:connector-curvature="0" class="st53" d="M995.2,24.1l-107,19.1l74.5-130.4L995.2,24.1z"/>
				<path id="path5335-4" inkscape:connector-curvature="0" class="st48" d="M1004,64.3L873.4,2.3l2.9,135.7L1004,64.3z"/>
				<path id="path5337-9" inkscape:connector-curvature="0" class="st42" d="M877.3-28.1L770.3-9l74.5-130.4L877.3-28.1z"/>
				<path id="path5339-7" inkscape:connector-curvature="0" class="st54" d="M843-3.8L712.3-65.7L715.2,70L843-3.8z"/>
				<path id="path5341-5" inkscape:connector-curvature="0" class="st47" d="M982.8,56.5L852.1-5.5l2.9,135.7L982.8,56.5z"/>
				<path id="path5343-9" inkscape:connector-curvature="0" class="st53" d="M1024,35L893.3-26.9l2.9,135.7L1024,35z"/>
				<path id="path5361-1" inkscape:connector-curvature="0" class="st46" d="M881.6,132.3l-88.2-63.5l145.5-37.4L881.6,132.3z"/>
				<path id="path5363-5" inkscape:connector-curvature="0" class="st43" d="M975.3,16.1l-46.6-136.9l-95.3,96.6L975.3,16.1z"/>
				<path id="path5365-9" inkscape:connector-curvature="0" class="st53" d="M1003.7,47l-88.2-63.5l145.5-37.4L1003.7,47z"/>
				<path id="path5367-4" inkscape:connector-curvature="0" class="st43" d="M1099.9,4.4l-46.6-136.9L958-36L1099.9,4.4z"/>
				<path id="path5369-0" inkscape:connector-curvature="0" class="st43" d="M1003.7,47l-88.2-63.5l145.5-37.4L1003.7,47z"/>
				<path id="path5371-5" inkscape:connector-curvature="0" class="st44" d="M1056.6,159.2L1010,22.3l-95.3,96.6L1056.6,159.2z"/>
				<path id="path5375-2" inkscape:connector-curvature="0" class="st49" d="M1042.4,10.2l-46.6-136.9l-95.3,96.6L1042.4,10.2z"/>
				<path id="path5377-1" inkscape:connector-curvature="0" class="st55" d="M1093.7,141.9L1047.1,5l-95.3,96.6L1093.7,141.9z"/>
				<path id="path5379-1" inkscape:connector-curvature="0" class="st48" d="M1081.7,93.1l-46.6-136.9l-95.3,96.6L1081.7,93.1z"/>
				<path id="path5381-1" inkscape:connector-curvature="0" class="st53" d="M1092.8,54.1l-88.2-63.5l145.5-37.4L1092.8,54.1z"/>
				<path id="path5383-5" inkscape:connector-curvature="0" class="st44" d="M1149.8,45.1l-46.6-136.9l-95.3,96.6L1149.8,45.1z"/>
				<path id="path5385-4" inkscape:connector-curvature="0" class="st43" d="M1141-23l-88.2-63.5l145.5-37.4L1141-23z"/>
				<path id="path5387-3" inkscape:connector-curvature="0" class="st49" d="M1195.9,53.7l-46.6-136.9L1054,13.3L1195.9,53.7z"/>
				<path id="path5391-2" inkscape:connector-curvature="0" class="st43" d="M1171.7,114.5l-46.6-136.9l-95.3,96.6L1171.7,114.5z"/>
				<path id="path5397-2" inkscape:connector-curvature="0" class="st49" d="M1139.5,100.5l-46.6-136.9l-95.3,96.6L1139.5,100.5z"/>
				<path id="path5399-4" inkscape:connector-curvature="0" class="st43" d="M1117.4,142.2L1070.9,5.3l-95.3,96.6L1117.4,142.2z"/>
				<path id="path5401-6" inkscape:connector-curvature="0" class="st53" d="M1200.1,149.1l-88.2-63.5l145.5-37.4L1200.1,149.1z"/>
				<path id="path5403-9" inkscape:connector-curvature="0" class="st42" d="M1224.5,150.2l-46.6-136.9l-95.3,96.6L1224.5,150.2z"/>
				<path id="path5405-4" inkscape:connector-curvature="0" class="st53" d="M1226.1,97.3l-88.2-63.5l145.5-37.4L1226.1,97.3z"/>
				<path id="path5407-6" inkscape:connector-curvature="0" class="st53" d="M1250.6,98.4L1204-38.5L1108.7,58L1250.6,98.4z"/>
				<path id="path5409-8" inkscape:connector-curvature="0" class="st53" d="M1226.1,97.3l-88.2-63.5l145.5-37.4L1226.1,97.3z"/>
				<path id="path5411-0" inkscape:connector-curvature="0" class="st51" d="M1311.9,203.9L1265.3,67l-95.3,96.6L1311.9,203.9z"/>
				<path id="path5413-1" inkscape:connector-curvature="0" class="st53" d="M1226.1,97.3l-88.2-63.5l145.5-37.4L1226.1,97.3z"/>
				<path id="path5415-9" inkscape:connector-curvature="0" class="st56" d="M1203.6,91.7l-46.6-136.9l-95.3,96.6L1203.6,91.7z"/>
				<path id="path5417-5" inkscape:connector-curvature="0" class="st48" d="M1246.7,195.5l-46.6-136.9l-95.3,96.6L1246.7,195.5z"/>
				<path id="path5419-7" inkscape:connector-curvature="0" class="st47" d="M1320.8,182.5l-46.6-136.9l-95.3,96.6L1320.8,182.5z"/>
				<path id="path5421-1" inkscape:connector-curvature="0" class="st48" d="M1300.6,88.7l-88.2-63.5l145.5-37.4L1300.6,88.7z"/>
				<path id="path5423-8" inkscape:connector-curvature="0" class="st57" d="M1325.1,89.8l-46.6-136.9l-95.3,96.6L1325.1,89.8z"/>
				<path id="path5425-6" inkscape:connector-curvature="0" class="st53" d="M1326.7,37l-88.2-63.5L1384-63.9L1326.7,37z"/>
				<path id="path5427-7" inkscape:connector-curvature="0" class="st53" d="M1351.1,38l-46.6-136.9l-95.3,96.6L1351.1,38z"/>
				<path id="path5429-8" inkscape:connector-curvature="0" class="st53" d="M1326.7,37l-88.2-63.5L1384-63.9L1326.7,37z"/>
				<path id="path5431-1" inkscape:connector-curvature="0" class="st42" d="M1379.5,149.1l-46.6-136.9l-95.3,96.6L1379.5,149.1z"/>
				<path id="path5433-0" inkscape:connector-curvature="0" class="st49" d="M1326.7,37l-88.2-63.5L1384-63.9L1326.7,37z"/>
				<path id="path5435-6" inkscape:connector-curvature="0" class="st44" d="M1299.7,42.5l-46.6-136.9l-95.3,96.6L1299.7,42.5z"/>
				<path id="path5437-3" inkscape:connector-curvature="0" class="st45" d="M1347.3,135.2L1300.8-1.7l-95.3,96.6L1347.3,135.2z"/>
				<path id="path5439-5" inkscape:connector-curvature="0" class="st43" d="M1410.2,124.9L1363.6-12l-95.3,96.6L1410.2,124.9z"/>
				<path id="path5441-2" inkscape:connector-curvature="0" class="st44" d="M1433.6,68.6l-88.2-63.5l145.5-37.4L1433.6,68.6z"/>
				<path id="path5443-5" inkscape:connector-curvature="0" class="st53" d="M1458.1,69.7l-46.6-136.9l-95.3,96.6L1458.1,69.7z"/>
				<path id="path5445-8" inkscape:connector-curvature="0" class="st53" d="M1459.7,16.8l-88.2-63.5L1517-84L1459.7,16.8z"/>
				<path id="path5447-9" inkscape:connector-curvature="0" class="st53" d="M1484.1,17.9L1437.5-119l-95.3,96.6L1484.1,17.9z"/>
				<path id="path5449-1" inkscape:connector-curvature="0" class="st53" d="M1459.7,16.8l-88.2-63.5L1517-84L1459.7,16.8z"/>
				<path id="path5451-0" inkscape:connector-curvature="0" class="st51" d="M1512.5,129L1465.9-7.9l-95.3,96.6L1512.5,129z"/>
				<path id="path5453-4" inkscape:connector-curvature="0" class="st53" d="M1459.7,16.8l-88.2-63.5L1517-84L1459.7,16.8z"/>
				<path id="path5455-4" inkscape:connector-curvature="0" class="st51" d="M1484.1,17.9L1437.5-119l-95.3,96.6L1484.1,17.9z"/>
				<path id="path5457-4" inkscape:connector-curvature="0" class="st43" d="M1480.3,115.1l-46.6-136.9l-95.3,96.6L1480.3,115.1z"/>
				<path id="path5459-3" inkscape:connector-curvature="0" class="st48" d="M1496.3,104.2l-46.6-136.9l-95.3,96.6L1496.3,104.2z"/>
				<path id="path5461-5" inkscape:connector-curvature="0" class="st53" d="M1544.2,34L1456-29.5l145.5-37.4L1544.2,34z"/>
				<path id="path5463-4" inkscape:connector-curvature="0" class="st57" d="M1568.7,35.1l-46.6-136.9l-95.3,96.6L1568.7,35.1z"/>
				<path id="path5465-9" inkscape:connector-curvature="0" class="st53" d="M1570.3-17.8l-88.2-63.5l145.5-37.4L1570.3-17.8z"/>
				<path id="path5467-9" inkscape:connector-curvature="0" class="st53" d="M1594.7-16.7l-46.6-136.9l-95.3,96.6L1594.7-16.7z"/>
				<path id="path5469-7" inkscape:connector-curvature="0" class="st53" d="M1570.3-17.8l-88.2-63.5l145.5-37.4L1570.3-17.8z"/>
				<path id="path5471-1" inkscape:connector-curvature="0" class="st42" d="M1623.1,94.3l-46.6-136.9L1481.2,54L1623.1,94.3z"/>
				<path id="path5473-3" inkscape:connector-curvature="0" class="st51" d="M1570.3-17.8l-88.2-63.5l145.5-37.4L1570.3-17.8z"/>
				<path id="path5475-0" inkscape:connector-curvature="0" class="st51" d="M1594.7-16.7l-46.6-136.9l-95.3,96.6L1594.7-16.7z"/>
				<path id="path5477-3" inkscape:connector-curvature="0" class="st48" d="M1590.9,80.4l-46.6-136.9L1449,40.1L1590.9,80.4z"/>
				<path id="path5479-6" inkscape:connector-curvature="0" class="st42" d="M1606.9,69.6l-46.6-136.9L1465,29.3L1606.9,69.6z"/>
				<path id="path5481-3" inkscape:connector-curvature="0" class="st53" d="M695,105.5L606.8,42L752.3,4.6L695,105.5z"/>
				<path id="path5483-0" inkscape:connector-curvature="0" class="st43" d="M719.4,106.6L672.8-30.3l-95.3,96.6L719.4,106.6z"/>
				<path id="path5485-0" inkscape:connector-curvature="0" class="st53" d="M721,53.7L632.8-9.7l145.5-37.4L721,53.7z"/>
				<path id="path5487-5" inkscape:connector-curvature="0" class="st53" d="M641.6,146.6L595,9.7l-95.3,96.6L641.6,146.6z"/>
				<path id="path5489-7" inkscape:connector-curvature="0" class="st53" d="M721,53.7L632.8-9.7l145.5-37.4L721,53.7z"/>
				<path id="path5491-2" inkscape:connector-curvature="0" class="st51" d="M773.9,165.9L727.3,29l-95.3,96.6L773.9,165.9z"/>
				<path id="path5493-8" inkscape:connector-curvature="0" class="st54" d="M721,53.7L632.8-9.7l145.5-37.4L721,53.7z"/>
				<path id="path5495-8" inkscape:connector-curvature="0" class="st49" d="M598.4,102.5L551.8-34.4l-95.3,96.6L598.4,102.5z"/>
				<path id="path5497-3" inkscape:connector-curvature="0" class="st51" d="M741.7,151.9L695.1,15l-95.3,96.6L741.7,151.9z"/>
				<path id="path5499-7" inkscape:connector-curvature="0" class="st47" d="M757.6,141.1L711.1,4.2l-95.3,96.6L757.6,141.1z"/>
			</g>
		</g>
	</g>
	<g id="layer5" inkscape:groupmode="layer" inkscape:label="triangles" class="st1">
	</g>
</g>
<g id="Layer_3" class="st0">
	
		<image style="display:inline;overflow:visible;" width="16250" height="5417" xlink:href="EFBC159D.jpg"  transform="matrix(0.24 0 0 0.24 -42.72 -153.84)">
	</image>
</g>
<g id="Layer_2">
	<polygon class="st58" points="150.1,9.7 171.1,31.7 179.8,0 	"/>
	<polygon class="st59" points="179.8,0 171.1,31.7 191.2,22.5 	"/>
	<polygon class="st60" points="148.9,-2.9 150.1,9.7 179.8,0 	"/>
	<polygon class="st61" points="191.2,22.5 206.6,-1.5 179.8,0 	"/>
	<polygon class="st61" points="191.2,22.5 202.4,34.8 206.6,-1.5 	"/>
	<polygon class="st62" points="224.7,40.5 202.4,34.8 221.8,14.8 	"/>
	<polygon class="st63" points="221.8,14.8 206.6,-1.5 202.4,34.8 	"/>
	<polygon class="st64" points="206.6,-1.5 221.8,14.8 238.3,0 	"/>
	<polygon class="st65" points="221.8,14.8 224.7,40.5 241.4,37.7 	"/>
	<polygon class="st66" points="238.3,0 221.8,14.8 241.4,37.7 	"/>
	<polygon class="st67" points="238.3,0 241.4,37.7 263.7,20.7 	"/>
	<polygon class="st68" points="238.3,0 263.7,20.7 261.1,0.5 	"/>
	<polygon class="st69" points="263.7,20.7 241.4,37.7 256.4,35.5 	"/>
	<polygon class="st66" points="262.5,0.5 263.7,20.7 281.7,28.1 	"/>
	<polygon class="st70" points="264.9,-0.1 275.4,14.6 281.7,-0.6 	"/>
	<polygon class="st71" points="283.8,1.1 283.7,27.3 292.8,25.2 	"/>
	<polygon class="st72" points="282.1,0.9 276.9,16 282.4,24.4 	"/>
	<polygon class="st73" points="284.5,-1.2 293.1,17.3 297.2,4.6 	"/>
	<polygon class="st74" points="300.1,8.6 296.3,25.5 308.9,26 	"/>
	<polygon class="st66" points="290.4,-1.5 299.4,2.7 314.4,-2.5 	"/>
	<polygon class="st75" points="318.1,1.1 301.1,4.8 312.2,25.7 	"/>
</g>
</svg>
